<svg aria-hidden="true" style="position: absolute; width: 0; height: 0; overflow: hidden;" version="1.1" xmlns="http://www.w3.org/2000/svg" xmlns:xlink="http://www.w3.org/1999/xlink">
<defs>
<symbol id="icon-webflow" viewBox="0 0 127 32">
<path d="M41.081 12.513c0-2.282-2.219-4.706-6.060-4.706-4.313 0-9.050 3.164-9.774 9.475-0.74 6.375 3.227 9.208 7.225 9.208s6.091-1.558 8.232-3.636c-1.842-2.314-4.218-1.243-4.675-1.007-0.504 0.252-1.149 0.598-2.471 0.598-1.542 0-3.116-0.693-3.116-3.573 9.885-0.976 10.64-4.077 10.64-6.359zM36.186 12.891c-0.063 0.708-0.346 1.92-5.352 2.597 1.055-3.746 3.069-4.029 3.998-4.029 0.866 0 1.417 0.677 1.354 1.432zM19.439 13.505c0 0-2.125 6.674-2.298 7.225-0.063-0.567-1.621-12.545-1.621-12.545-3.62 0-5.556 2.581-6.579 5.304 0 0-2.581 6.689-2.802 7.256-0.016-0.519-0.394-7.177-0.394-7.177-0.22-3.337-3.274-5.367-5.745-5.367l2.991 18.148c3.793-0.016 5.839-2.581 6.91-5.304 0 0 2.282-5.902 2.377-6.17 0.016 0.252 1.637 11.474 1.637 11.474 3.809 0 5.855-2.408 6.957-5.037l5.336-13.111c-3.762 0-5.745 2.566-6.768 5.304zM55.058 7.775c-2.345 0-4.14 1.275-5.651 3.148v-0.016l1.354-10.908c-3.116 0-5.651 2.707-6.139 6.737l-2.361 19.47c1.794 0 3.699-0.519 4.722-1.842 0.913 1.18 2.282 2.125 4.313 2.125 5.257 0 8.861-6.107 8.861-11.836-0.031-5.226-2.566-6.878-5.1-6.878zM54.57 17.141c-0.551 3.195-2.33 5.367-4.045 5.367-1.731 0-2.471-0.771-2.471-0.771 0.331-2.802 0.535-4.517 1.165-5.997s2.125-3.841 3.683-3.841c1.527 0 2.219 2.030 1.668 5.241zM73.284 8.2h-3.667l0.016-0.189c0.252-2.392 0.818-3.652 2.692-3.856 1.275-0.126 1.842-0.787 1.983-1.511 0.11-0.567 0.456-2.534 0.456-2.534-7.366-0.047-9.68 3.132-10.278 7.98l-0.016 0.11h-0.079c-1.196 0-2.518 1.354-2.739 3.069l-0.079 0.63h2.455l-2.062 17.030-0.63 3.054c0.079 0 0.173 0.016 0.252 0.016 3.447-0.126 5.651-2.849 6.139-6.8l1.605-13.3h1.149c1.133 0 2.455-1.133 2.692-3.022l0.11-0.677zM92.361 7.886c-4.234 0-8.232 3.116-9.46 8.012s0.63 10.687 6.863 10.687c6.217 0 9.806-6.028 9.806-11.049 0-4.989-3.384-7.65-7.209-7.65zM94.077 16.983c-0.22 2.219-1.196 5.588-3.872 5.588-2.692 0-2.314-3.935-2.046-5.808 0.283-1.999 1.401-4.848 3.809-4.848 2.156 0 2.361 2.566 2.109 5.068zM120.488 13.505c0 0-2.125 6.674-2.298 7.225-0.063-0.567-1.621-12.545-1.621-12.545-3.62 0-5.556 2.581-6.579 5.304 0 0-2.581 6.689-2.802 7.256-0.016-0.519-0.394-7.177-0.394-7.177-0.22-3.337-3.274-5.367-5.745-5.367l2.975 18.148c3.793-0.016 5.839-2.581 6.91-5.304 0 0 2.282-5.902 2.361-6.17 0.016 0.252 1.637 11.474 1.637 11.474 3.809 0 5.855-2.408 6.957-5.037l5.336-13.111c-3.746 0-5.729 2.566-6.737 5.304zM76.747 0.11l-3.085 24.885-0.63 3.069c0.079 0 0.173 0.016 0.252 0.016v0c3.321-0.047 5.682-2.959 6.123-6.626l1.779-14.276c0.535-4.36-2.062-7.067-4.439-7.067z"></path>
</symbol>
<symbol id="icon-uber" viewBox="0 0 95 32">
<path d="M0 0v19.692c0 7.424 5.161 12.308 11.911 12.308 3.295 0 6.194-1.27 8.298-3.454v2.938h4.685v-31.484h-4.725v19.414c0 5.002-3.375 8.377-7.702 8.377-4.407 0-7.742-3.295-7.742-8.377v-19.414h-4.725zM29.538 0v31.484h4.486v-2.898c2.075 2.108 4.96 3.414 8.15 3.414 0.010 0 0.020 0 0.030-0h-0.002c0.036 0 0.078 0.001 0.12 0.001 6.578 0 11.911-5.333 11.911-11.911 0-0.042-0-0.084-0.001-0.126l0 0.006c0-0 0-0 0-0.001 0-6.578-5.333-11.911-11.911-11.911-0.042 0-0.084 0-0.125 0.001l0.006-0c-0.007 0-0.014-0-0.022-0-3.179 0-6.054 1.307-8.115 3.412l-0.002 0.002v-11.474h-4.526zM68.725 8.060c-6.71 0-11.792 5.479-11.792 11.911 0 6.869 5.32 11.911 12.189 11.911 4.208 0 7.623-1.747 9.886-4.804l-3.256-2.462c-1.707 2.303-3.97 3.295-6.63 3.295-3.851 0-6.948-2.7-7.583-6.432h18.66v-1.509c0-6.789-4.883-11.911-11.474-11.911zM93.697 8.377c-2.501 0-4.367 1.151-5.479 2.978v-2.819h-4.486v22.948h4.526v-13.062c0-3.534 2.184-5.836 5.161-5.836h1.866v-4.248h-1.588zM68.645 12.030c3.375 0 6.194 2.342 6.948 5.836h-14.055c0.913-3.494 3.732-5.836 7.107-5.836zM41.886 12.030c4.328 0 7.861 3.573 7.861 7.94 0 4.486-3.534 7.94-7.861 7.94-4.368-0.023-7.901-3.569-7.901-7.94 0-0 0-0 0-0v0c0-0 0-0 0-0 0-4.371 3.532-7.918 7.899-7.94h0.002z"></path>
</symbol>
<symbol id="icon-product-hunt" viewBox="0 0 32 32" >
<path d="M6.917 18.379c-0.109 0.088-0.24 0.13-0.37 0.13-0.174 0-0.346-0.076-0.463-0.222l-0.081-0.102c-0.088-0.109-0.13-0.24-0.13-0.37-0-0.174 0.076-0.346 0.222-0.463 0.255-0.205 0.629-0.164 0.833 0.092l0.081 0.102c0.088 0.109 0.13 0.24 0.13 0.37 0 0.174-0.076 0.346-0.222 0.463zM8.602 21.431c0.117 0.146 0.289 0.222 0.463 0.222 0.13 0 0.261-0.042 0.37-0.13 0.146-0.117 0.222-0.289 0.222-0.463 0-0.13-0.042-0.261-0.13-0.37l-0.081-0.102c-0.205-0.256-0.578-0.297-0.833-0.093-0.146 0.117-0.222 0.289-0.222 0.463 0 0.13 0.042 0.261 0.13 0.37l0.081 0.102zM8.366 18.666c0.13 0 0.261-0.043 0.371-0.131 0.146-0.117 0.222-0.29 0.222-0.464-0-0.13-0.043-0.261-0.131-0.37l-0.082-0.102c-0.205-0.255-0.578-0.296-0.833-0.091-0.146 0.117-0.221 0.289-0.222 0.462-0 0.131 0.043 0.262 0.131 0.372l0.082 0.102c0.117 0.146 0.289 0.222 0.463 0.222zM6.863 20.279c0.117 0.146 0.289 0.222 0.463 0.222 0.13 0 0.261-0.043 0.371-0.13 0.146-0.117 0.222-0.29 0.222-0.463-0-0.13-0.043-0.261-0.13-0.37l-0.081-0.102c-0.205-0.255-0.578-0.296-0.833-0.091-0.146 0.117-0.222 0.29-0.222 0.463 0 0.13 0.043 0.261 0.13 0.37l0.081 0.102zM0.512 14.015c-0.805-1.004-0.642-2.476 0.362-3.281 0.497-0.398 1.117-0.567 1.719-0.499 0.065-0.603 0.365-1.171 0.862-1.569 1.004-0.805 2.476-0.643 3.281 0.362 0.677 0.845 0.67 2.020 0.053 2.851l1.046 1.305 0.47-0.377c0.129-0.104 0.296-0.148 0.46-0.123 0.231 0.035 0.465 0.086 0.696 0.152 0.315 0.089 0.498 0.417 0.409 0.732s-0.417 0.499-0.732 0.409c-0.101-0.028-0.202-0.054-0.304-0.075l-4.025 3.226c-0.007 0.657 0.128 1.35 0.397 2.020 0.122 0.304-0.026 0.649-0.33 0.771-0.072 0.029-0.147 0.043-0.22 0.043-0.235 0-0.458-0.141-0.551-0.373-0.369-0.921-0.531-1.887-0.469-2.795 0.011-0.165 0.091-0.319 0.221-0.422l0.47-0.377-1.046-1.305c-0.946 0.421-2.094 0.171-2.771-0.673zM3.051 13.452c0.109-0.088 0.24-0.13 0.37-0.13 0.174 0 0.346 0.076 0.463 0.222l1.369 1.708 1.656-1.327-1.369-1.708c-0.098-0.123-0.144-0.279-0.127-0.436s0.096-0.299 0.219-0.398c0.494-0.396 0.574-1.12 0.178-1.614s-1.12-0.574-1.614-0.178c-0.388 0.311-0.532 0.832-0.358 1.298 0.090 0.24 0.015 0.51-0.185 0.67s-0.48 0.174-0.694 0.034c-0.416-0.271-0.957-0.244-1.345 0.067-0.494 0.396-0.574 1.12-0.178 1.614s1.12 0.574 1.614 0.178zM12.75 14.46v1.026c0 0.327 0.265 0.593 0.593 0.593s0.593-0.265 0.593-0.593v-1.026c0-0.327-0.265-0.593-0.593-0.593s-0.593 0.265-0.593 0.593zM19.407 14.875c-0.432-0.333-0.886-0.505-1.348-0.513-0.007-0-0.013-0-0.019 0-0.785 0.013-1.566 0.521-2.199 1.43-0.956 1.372-1.593 3.7-0.963 5.497 0.086 0.244 0.315 0.397 0.559 0.397 0.065 0 0.131-0.011 0.196-0.034 0.309-0.108 0.472-0.447 0.363-0.756-0.475-1.355 0.042-3.315 0.817-4.427 0.4-0.575 0.85-0.91 1.236-0.922 0.199 0.006 0.413 0.096 0.635 0.267 0.259 0.2 0.632 0.151 0.831-0.108s0.151-0.632-0.108-0.832zM23.554 21.086c0.329 0.007 0.599-0.251 0.607-0.579 0.041-1.736-0.539-3.698-1.929-4.17-0.006-0.002-0.012-0.004-0.019-0.006-0.621-0.188-1.336-0.059-2.068 0.374-1.373 0.813-2.619 2.592-2.963 4.231-0.067 0.32 0.138 0.635 0.458 0.702 0.041 0.009 0.082 0.013 0.122 0.013 0.275 0 0.521-0.192 0.58-0.471 0.277-1.321 1.312-2.806 2.407-3.454 0.427-0.253 0.821-0.346 1.11-0.263 0.672 0.238 1.151 1.531 1.116 3.016-0.008 0.327 0.251 0.599 0.579 0.607zM5.883 7.254c0.083 0.040 0.171 0.060 0.258 0.060 0.22 0 0.431-0.123 0.534-0.334 0.024-0.050 0.318-0.803 0.343-0.862 1.39-2.663 4.053-4.428 7.308-4.843 3.393-0.433 6.796 0.735 8.88 3.047 0.219 0.243 0.594 0.263 0.837 0.043s0.263-0.594 0.043-0.837c-1.19-1.32-2.762-2.331-4.547-2.922-1.7-0.563-3.554-0.738-5.364-0.508-3.65 0.466-6.644 2.464-8.215 5.482-0.030 0.057-0.338 0.846-0.356 0.888-0.138 0.293-0.014 0.643 0.278 0.785zM18.205 12.39c0.225 0.238 0.215 0.613-0.023 0.838s-0.613 0.215-0.838-0.023c-0.212-0.223-0.481-0.373-0.779-0.433-0.277-0.056-0.476-0.299-0.476-0.581v-0.768h-2.611v0.768c0 0.282-0.199 0.525-0.476 0.581-0.685 0.138-1.183 0.745-1.183 1.443v6.698c0 0.327-0.265 0.593-0.593 0.593s-0.593-0.265-0.593-0.593v-6.698c0-1.092 0.674-2.061 1.659-2.462v-0.649c-0.282-0.242-0.461-0.602-0.461-1.002v-0.782c0-0.728 0.592-1.32 1.32-1.32h3.264c0.728 0 1.32 0.592 1.32 1.32v0.782c0 0.4-0.179 0.76-0.461 1.002v0.648c0.349 0.142 0.665 0.358 0.929 0.637zM16.551 9.321c0-0.073-0.062-0.135-0.135-0.135h-3.264c-0.073 0-0.135 0.062-0.135 0.135v0.782c0 0.055 0.035 0.104 0.084 0.124 0.002 0.001 0.003 0.001 0.005 0.002 0.014 0.005 0.030 0.008 0.046 0.008h3.264c0.015 0 0.031-0.003 0.045-0.008 0.002-0.001 0.005-0.002 0.007-0.003 0.048-0.021 0.083-0.069 0.083-0.124v-0.782zM29.339 21.281c-0.031 1.33-0.893 3.039-2.367 4.688-1.434 1.605-3.28 2.986-5.23 3.917v1.521c0 0.327-0.265 0.593-0.593 0.593h-10.829c-0.327 0-0.593-0.265-0.593-0.593v-1.521c-1.95-0.932-3.796-2.312-5.23-3.917-1.474-1.649-2.336-3.358-2.367-4.688-0.005-0.231 0.125-0.445 0.333-0.546s0.456-0.073 0.635 0.074c0.257 0.211 1.215 0.743 4.54 1.143 2.254 0.271 5.129 0.42 8.096 0.42s5.843-0.149 8.096-0.42c3.324-0.4 4.282-0.932 4.539-1.143 0.179-0.146 0.427-0.175 0.635-0.074s0.338 0.315 0.333 0.546zM20.556 30.1h-9.643v0.714h9.643v-0.714zM27.922 22.337c-3.295 1.154-10.573 1.22-12.187 1.22s-8.892-0.066-12.187-1.22c0.192 0.52 0.499 1.086 0.902 1.666 0.010 0.011 0.020 0.023 0.030 0.035 0.086 0.109 0.27 0.293 0.534 0.293 0.234 0 0.457-0.148 0.611-0.406 0.168-0.281 0.532-0.373 0.813-0.205s0.373 0.532 0.205 0.813c-0.254 0.426-0.623 0.733-1.042 0.882 0.432 0.461 0.916 0.916 1.442 1.35 0.185-0.211 0.5-0.266 0.749-0.117 0.281 0.168 0.373 0.532 0.205 0.813-0.005 0.008-0.009 0.016-0.014 0.023 0.762 0.541 1.592 1.029 2.467 1.43h10.573c0.821-0.376 1.602-0.829 2.325-1.331-0.027-0.040-0.053-0.081-0.079-0.123-0.168-0.281-0.076-0.645 0.205-0.813s0.645-0.076 0.813 0.205c0.004 0.006 0.008 0.013 0.012 0.019 0.58-0.468 1.11-0.963 1.579-1.464-0.411-0.152-0.772-0.456-1.022-0.875-0.168-0.281-0.076-0.645 0.205-0.813s0.645-0.076 0.813 0.205c0.154 0.258 0.377 0.406 0.611 0.406 0.194 0 0.343-0.099 0.439-0.19 0.452-0.628 0.792-1.243 1-1.805zM28.555 8.445c-0.282-0.167-0.645-0.073-0.812 0.209l-0.075 0.127c-0.056 0.095-0.083 0.199-0.083 0.301 0 0.203 0.104 0.4 0.291 0.511 0.095 0.056 0.199 0.082 0.301 0.082 0.203 0 0.4-0.104 0.511-0.291l0.075-0.127c0.056-0.095 0.083-0.199 0.083-0.301-0-0.203-0.104-0.4-0.291-0.511zM26.929 9.597c-0.282-0.166-0.646-0.072-0.812 0.211l-0.075 0.127c-0.055 0.094-0.082 0.198-0.082 0.3-0 0.203 0.105 0.401 0.293 0.512 0.094 0.055 0.198 0.082 0.3 0.082 0.203 0 0.401-0.105 0.512-0.293l0.075-0.127c0.055-0.094 0.082-0.198 0.082-0.3 0-0.203-0.105-0.402-0.293-0.512zM27.152 7.618c-0.282-0.167-0.645-0.073-0.812 0.209l-0.075 0.127c-0.056 0.095-0.082 0.199-0.082 0.301 0 0.203 0.104 0.4 0.292 0.511 0.095 0.056 0.198 0.082 0.301 0.082 0.203 0 0.4-0.104 0.511-0.292l0.075-0.127c0.056-0.095 0.082-0.199 0.082-0.301-0-0.203-0.104-0.4-0.291-0.511zM32.010 9.924c-0.718 2.19-1.825 4.58-3.2 6.913-0.586 0.994-1.209 1.957-1.851 2.863-0.116 0.163-0.298 0.25-0.484 0.25-0.119 0-0.238-0.035-0.342-0.109-0.267-0.189-0.33-0.56-0.141-0.827 0.623-0.879 1.228-1.814 1.797-2.779 1.119-1.898 2.053-3.832 2.734-5.653-0.162 0.060-0.33 0.13-0.502 0.208-0.019 0.010-0.038 0.019-0.058 0.027-1.642 0.766-3.705 2.359-5.755 4.481-0.059 0.171-0.12 0.344-0.182 0.517-0.111 0.308-0.45 0.468-0.759 0.357s-0.468-0.45-0.357-0.758c0.073-0.204 0.145-0.408 0.214-0.61 0.003-0.009 0.006-0.018 0.009-0.027 1.003-2.941 1.542-5.643 1.522-7.539-0.002-0.023-0.002-0.046-0.001-0.068-0.001-0.038-0.002-0.075-0.003-0.113-1.174 1.457-2.332 3.143-3.393 4.943-0.318 0.54-0.627 1.090-0.919 1.634-0.155 0.289-0.514 0.397-0.803 0.243s-0.397-0.514-0.243-0.802c0.299-0.559 0.616-1.123 0.943-1.677 1.356-2.301 2.872-4.426 4.383-6.146 0.145-0.165 0.369-0.236 0.583-0.185s0.382 0.216 0.436 0.429c0.037 0.142 0.068 0.292 0.095 0.45 1.731-1.465 3.151-1.931 4.142-1.346 1.275 0.752 1.177 2.798 0.735 4.711 0.268-0.077 0.524-0.13 0.767-0.158 0.201-0.023 0.4 0.057 0.528 0.214s0.167 0.368 0.104 0.56zM29.275 5.619c-0.441-0.26-1.601 0.072-3.437 1.828-0.015 1.511-0.322 3.397-0.896 5.487 1.523-1.38 3.002-2.436 4.305-3.082 0.714-2.511 0.536-3.933 0.028-4.232zM28.693 6.605c-0.282-0.166-0.646-0.072-0.812 0.21l-0.075 0.127c-0.056 0.095-0.082 0.199-0.082 0.301 0 0.203 0.105 0.4 0.292 0.511 0.095 0.056 0.198 0.082 0.3 0.082 0.203 0 0.401-0.104 0.511-0.292l0.075-0.127c0.056-0.095 0.082-0.199 0.082-0.301-0-0.203-0.105-0.4-0.292-0.511zM10.576 24.996c0.168-0.281 0.076-0.645-0.205-0.813s-0.645-0.076-0.813 0.205c-0.154 0.258-0.377 0.406-0.611 0.406s-0.457-0.148-0.611-0.406c-0.168-0.281-0.532-0.373-0.813-0.205s-0.373 0.532-0.205 0.813c0.368 0.616 0.977 0.984 1.629 0.984s1.261-0.368 1.629-0.984zM15.033 24.996c0.168-0.281 0.076-0.645-0.205-0.813s-0.645-0.076-0.813 0.205c-0.154 0.258-0.377 0.406-0.611 0.406s-0.457-0.148-0.611-0.406c-0.168-0.281-0.532-0.373-0.813-0.205s-0.373 0.532-0.205 0.813c0.368 0.616 0.977 0.984 1.629 0.984s1.261-0.368 1.629-0.984zM22.317 25.98c0.652 0 1.262-0.368 1.629-0.984 0.168-0.281 0.076-0.645-0.205-0.813s-0.645-0.076-0.813 0.205c-0.154 0.258-0.377 0.406-0.611 0.406s-0.457-0.148-0.611-0.406c-0.168-0.281-0.532-0.373-0.813-0.205s-0.373 0.532-0.205 0.813c0.368 0.616 0.977 0.984 1.629 0.984zM12.424 26.648c-0.281-0.168-0.645-0.076-0.813 0.205-0.154 0.258-0.377 0.406-0.611 0.406s-0.457-0.148-0.611-0.406c-0.168-0.281-0.532-0.373-0.813-0.205s-0.373 0.532-0.205 0.813c0.368 0.616 0.977 0.984 1.629 0.984s1.261-0.368 1.629-0.984c0.168-0.281 0.076-0.645-0.205-0.813zM15.020 26.853c-0.168-0.281-0.532-0.373-0.813-0.205s-0.373 0.532-0.205 0.813c0.368 0.616 0.977 0.984 1.629 0.984s1.262-0.368 1.629-0.984c0.168-0.281 0.076-0.645-0.205-0.813s-0.645-0.076-0.813 0.205c-0.154 0.258-0.377 0.406-0.611 0.406s-0.457-0.148-0.611-0.406zM17.86 25.98c0.652 0 1.262-0.368 1.63-0.984 0.168-0.281 0.076-0.645-0.205-0.813s-0.645-0.076-0.813 0.205c-0.154 0.258-0.377 0.406-0.611 0.406s-0.457-0.148-0.611-0.406c-0.168-0.281-0.532-0.373-0.813-0.205s-0.373 0.532-0.205 0.813c0.368 0.616 0.977 0.984 1.629 0.984zM18.84 26.648c-0.281 0.168-0.373 0.532-0.205 0.813 0.368 0.616 0.977 0.984 1.629 0.984s1.261-0.368 1.629-0.984c0.168-0.281 0.076-0.645-0.205-0.813s-0.645-0.076-0.813 0.205c-0.154 0.258-0.377 0.406-0.611 0.406s-0.457-0.148-0.611-0.406c-0.168-0.281-0.532-0.373-0.813-0.205z"></path>
</symbol>
<symbol id="icon-microsoft" viewBox="0 0 40 32">
<path d="M26.834 10.189l-4.371 1.427-3.803 1.678-1.064 0.281c-0.271 0.258-0.555 0.519-0.862 0.783-0.337 0.291-0.651 0.555-0.892 0.747-0.268 0.211-0.664 0.608-0.866 0.859-0.301 0.377-0.539 0.776-0.641 1.084-0.182 0.555-0.092 1.117 0.258 1.635 0.449 0.661 1.345 1.335 2.389 1.794 0.532 0.235 1.427 0.535 2.101 0.704 1.12 0.284 3.287 0.591 4.48 0.638 0.241 0.010 0.565 0.010 0.578 0 0.026-0.017 0.211-0.37 0.426-0.809 0.733-1.497 1.262-2.901 1.549-4.1 0.172-0.727 0.307-1.695 0.396-2.841 0.023-0.321 0.033-1.394 0.013-1.758-0.030-0.595-0.083-1.077-0.165-1.55-0.013-0.069-0.017-0.132-0.010-0.135 0.013-0.010 0.053-0.023 0.591-0.178l-0.109-0.258h0zM25.836 10.774c0.040 0 0.145 1.014 0.172 1.655 0.007 0.135 0.003 0.225-0.003 0.225-0.026 0-0.558-0.314-0.938-0.552-0.33-0.208-0.958-0.624-1.057-0.704-0.033-0.023-0.030-0.026 0.241-0.119 0.459-0.155 1.55-0.505 1.586-0.505zM23.61 11.508c0.030 0 0.106 0.043 0.287 0.155 0.681 0.426 1.606 0.942 2.002 1.113 0.122 0.053 0.135 0.033-0.145 0.225-0.601 0.41-1.351 0.813-2.27 1.219-0.162 0.073-0.297 0.129-0.301 0.129-0.007 0 0.013-0.083 0.040-0.182 0.221-0.823 0.347-1.655 0.354-2.323 0.003-0.33 0.003-0.33 0.033-0.34-0.007 0.003-0.003 0.003 0 0.003zM23.15 11.683c0.020 0.020 0.007 0.76-0.020 0.961-0.059 0.482-0.152 0.932-0.304 1.437-0.036 0.122-0.069 0.225-0.076 0.231-0.013 0.017-0.466-0.426-0.615-0.598-0.258-0.297-0.459-0.595-0.608-0.885-0.076-0.149-0.195-0.439-0.185-0.449 0.053-0.036 1.794-0.71 1.807-0.697zM20.99 12.532c0.003 0 0.007 0 0.010 0.003 0.007 0.007 0.030 0.059 0.050 0.119 0.106 0.287 0.344 0.71 0.548 0.981 0.225 0.297 0.519 0.614 0.763 0.823 0.079 0.066 0.152 0.129 0.162 0.139 0.020 0.020 0.026 0.017-0.512 0.221-0.624 0.238-1.305 0.476-2.085 0.727-0.921 0.272-1.106 0.334-1.292 0.396l0.733-0.214c-0.030 0.010-0.020-0.007 0.066-0.142 0.387-0.605 0.975-1.791 1.305-2.63 0.056-0.145 0.112-0.291 0.122-0.324 0.013-0.046 0.030-0.063 0.073-0.086 0.023-0.007 0.046-0.013 0.056-0.013zM20.329 12.806c0.010 0.007-0.159 0.36-0.324 0.684-0.32 0.624-0.671 1.239-1.14 1.986-0.079 0.129-0.155 0.248-0.165 0.261-0.017 0.023-0.023 0.017-0.076-0.086-0.112-0.221-0.205-0.506-0.254-0.767-0.050-0.258-0.040-0.707 0.017-0.985 0.043-0.205 0.040-0.202 0.139-0.251 0.423-0.215 1.791-0.856 1.804-0.842zM26.028 13.037v0.139c0 0.737-0.079 1.748-0.195 2.485-0.020 0.129-0.036 0.235-0.040 0.238 0 0-0.096-0.026-0.208-0.059-0.496-0.155-1.034-0.383-1.52-0.651-0.321-0.175-0.786-0.463-0.773-0.476 0.003-0.003 0.142-0.076 0.304-0.162 0.648-0.337 1.269-0.7 1.807-1.061 0.202-0.135 0.505-0.354 0.572-0.413l0.053-0.040zM17.834 14.015c0.013 0 0.010 0.026-0.010 0.145-0.013 0.086-0.030 0.245-0.036 0.354-0.026 0.482 0.053 0.839 0.291 1.328 0.066 0.135 0.119 0.248 0.116 0.251-0.023 0.020-2.21 0.661-2.898 0.849-0.205 0.056-0.383 0.106-0.396 0.109-0.023 0.007-0.026 0.003-0.017-0.053 0.076-0.486 0.446-1.12 0.961-1.655 0.344-0.357 0.618-0.565 1.087-0.833 0.337-0.192 0.856-0.479 0.895-0.492 0-0.003 0.003-0.003 0.007-0.003zM22.988 14.937c0.003-0.003 0.083 0.040 0.178 0.096 0.707 0.41 1.692 0.79 2.531 0.985l0.076 0.017-0.106 0.059c-0.439 0.244-1.883 0.846-3.36 1.398-0.215 0.079-0.426 0.159-0.466 0.175s-0.076 0.026-0.076 0.023c0-0.003 0.059-0.119 0.135-0.261 0.413-0.773 0.829-1.715 1.041-2.369 0.026-0.063 0.043-0.119 0.046-0.122zM22.463 15.109c0.003 0.003-0.023 0.073-0.056 0.152-0.287 0.697-0.664 1.457-1.146 2.309-0.122 0.218-0.225 0.393-0.228 0.393s-0.102-0.059-0.221-0.132c-0.7-0.43-1.322-0.958-1.728-1.47l-0.059-0.073 0.301-0.083c1.077-0.294 1.992-0.611 2.901-1.001 0.129-0.053 0.235-0.096 0.238-0.096zM25.727 16.249s0.003 0.003 0 0c0.003 0.076-0.165 0.757-0.304 1.249-0.116 0.413-0.215 0.737-0.396 1.308-0.079 0.251-0.149 0.459-0.152 0.459s-0.023-0.003-0.043-0.010c-0.981-0.178-1.86-0.426-2.686-0.757-0.231-0.093-0.562-0.241-0.581-0.258-0.007-0.007 0.192-0.099 0.443-0.208 1.503-0.657 3.063-1.404 3.598-1.725 0.063-0.040 0.112-0.059 0.122-0.059zM18.191 16.506c0.007 0.007-0.413 0.611-1.001 1.434-0.205 0.287-0.443 0.624-0.532 0.75s-0.225 0.324-0.301 0.443l-0.139 0.215-0.149-0.126c-0.175-0.145-0.479-0.456-0.614-0.628-0.284-0.353-0.476-0.727-0.552-1.067-0.036-0.159-0.036-0.238-0.003-0.248 0.050-0.013 0.932-0.221 1.758-0.413 0.459-0.106 0.991-0.231 1.183-0.277s0.347-0.083 0.35-0.083zM18.614 16.668l0.106 0.119c0.476 0.532 0.961 0.925 1.55 1.269 0.106 0.059 0.185 0.112 0.178 0.116-0.023 0.017-2.042 0.733-2.977 1.057-0.525 0.185-0.958 0.334-0.961 0.334s-0.033-0.020-0.066-0.043l-0.059-0.043 0.096-0.139c0.311-0.449 0.7-0.942 1.55-1.966l0.585-0.704zM21.251 18.555c0.003-0.003 0.149 0.050 0.327 0.116 0.43 0.162 0.77 0.264 1.226 0.38 0.562 0.142 1.374 0.281 1.854 0.32 0.073 0.007 0.112 0.013 0.099 0.023-0.023 0.013-0.509 0.175-0.866 0.287-0.568 0.178-2.303 0.69-3.717 1.097-0.261 0.076-0.486 0.139-0.499 0.142-0.033 0.007-0.142-0.023-0.142-0.036 0-0.007 0.079-0.109 0.175-0.221 0.476-0.568 0.948-1.203 1.341-1.804 0.109-0.165 0.202-0.301 0.202-0.304zM20.669 18.571c0.003 0.003-0.231 0.38-0.641 1.027-0.175 0.274-0.37 0.585-0.439 0.694-0.066 0.106-0.165 0.271-0.221 0.363l-0.096 0.169-0.050-0.013c-0.119-0.033-0.955-0.327-1.176-0.416-0.274-0.109-0.558-0.241-0.77-0.354-0.264-0.142-0.595-0.354-0.568-0.36 0.007-0.003 0.459-0.126 1.004-0.274 1.447-0.393 2.25-0.621 2.775-0.786 0.096-0.030 0.178-0.053 0.182-0.050zM24.782 19.536h0.003c0.013 0.033-0.522 1.52-0.717 1.989-0.043 0.106-0.059 0.132-0.083 0.129-0.056-0.003-0.833-0.112-1.305-0.182-0.823-0.126-2.204-0.367-2.551-0.446l-0.079-0.017 0.492-0.112c1.057-0.238 1.566-0.367 2.081-0.525 0.651-0.198 1.295-0.446 1.946-0.75 0.102-0.046 0.188-0.083 0.211-0.086z"></path>
<path d="M22.328 0c-0.073-0.010-1.246 0.413-2.002 0.72-1.021 0.416-1.814 0.813-2.303 1.156-0.182 0.129-0.41 0.357-0.446 0.446-0.013 0.033-0.020 0.073-0.020 0.112l0.443 0.42 1.054 0.337 2.508 0.449 2.868 0.492 0.030-0.248c-0.010 0-0.017-0.003-0.026-0.003l-0.377-0.059-0.076-0.135c-0.39-0.687-0.819-1.54-1.070-2.115-0.195-0.446-0.38-0.961-0.482-1.331-0.056-0.225-0.063-0.238-0.099-0.241v-0h-0zM22.275 0.169h0.003c0.003 0.003 0.016 0.096 0.030 0.205 0.056 0.463 0.159 0.909 0.32 1.391 0.122 0.363 0.122 0.344-0.020 0.301-0.337-0.092-1.847-0.353-2.94-0.505-0.175-0.023-0.324-0.046-0.324-0.050-0.013-0.013 0.79-0.433 1.143-0.598 0.453-0.208 1.695-0.727 1.787-0.743zM19.090 1.649l0.129 0.043c0.7 0.238 2.461 0.575 3.433 0.654 0.109 0.010 0.202 0.020 0.205 0.020 0.003 0.003-0.089 0.053-0.208 0.109-0.469 0.235-0.985 0.522-1.341 0.743-0.106 0.066-0.202 0.119-0.215 0.119s-0.083-0.013-0.155-0.023l-0.132-0.020-0.33-0.324c-0.581-0.565-1.037-1.001-1.213-1.166l-0.172-0.155zM18.958 1.751l0.466 0.582c0.254 0.32 0.512 0.634 0.568 0.704s0.102 0.126 0.099 0.129c-0.013 0.010-0.674-0.119-1.024-0.198-0.36-0.083-0.509-0.122-0.73-0.192l-0.182-0.059v-0.046c0.003-0.221 0.284-0.552 0.76-0.889l0.043-0.030zM22.916 2.544c0.013 0 0.030 0.030 0.069 0.119 0.112 0.248 0.463 0.915 0.548 1.044 0.026 0.043 0.073 0.046-0.393-0.030-1.12-0.182-1.48-0.241-1.48-0.248 0-0.003 0.033-0.026 0.076-0.050 0.347-0.192 0.697-0.436 1.008-0.697 0.076-0.063 0.145-0.122 0.159-0.132 0.003-0.007 0.010-0.010 0.013-0.007z"></path>
<path d="M17.6 2.277s-0.073 0.116-0.003 0.288c0.043 0.106 0.169 0.235 0.311 0.367 0 0 1.47 1.434 1.649 1.639 0.813 0.938 1.166 1.863 1.199 3.139 0.020 0.819-0.136 1.54-0.522 2.376-0.687 1.5-2.138 3.155-4.374 4.992l0.327-0.109c0.211-0.159 0.499-0.327 1.173-0.697 1.556-0.852 3.307-1.635 5.455-2.442 3.092-1.163 8.177-2.524 11.071-2.967l0.301-0.046-0.046-0.073c-0.264-0.41-0.446-0.664-0.664-0.935-0.634-0.786-1.404-1.424-2.346-1.953-1.295-0.724-2.97-1.288-5.091-1.708-0.4-0.079-1.279-0.231-1.992-0.34-1.513-0.235-2.491-0.396-3.568-0.581-0.387-0.066-0.965-0.165-1.348-0.248-0.198-0.043-0.578-0.132-0.875-0.235-0.238-0.093-0.581-0.185-0.654-0.466zM18.452 3.103c0.003-0.003 0.056 0.017 0.126 0.040 0.126 0.043 0.287 0.092 0.479 0.145-0.026-0 0.12 0.039 0.266 0.078l0.17 0.038c0.198 0.050 0.363 0.096 0.367 0.096 0.023 0.023 0.357 1.090 0.469 1.5 0.043 0.155 0.076 0.287 0.073 0.287-0.003 0.003-0.040-0.053-0.083-0.129-0.387-0.681-0.998-1.371-1.705-1.926-0.092-0.066-0.162-0.126-0.162-0.129zM20.078 3.552c0.017 0 0.089 0.010 0.178 0.030 0.562 0.126 1.569 0.317 2.214 0.426 0.109 0.016 0.195 0.036 0.195 0.043s-0.040 0.030-0.089 0.056c-0.109 0.056-0.548 0.317-0.694 0.416-0.367 0.244-0.697 0.509-0.935 0.747-0.096 0.096-0.178 0.175-0.178 0.175s-0.020-0.056-0.036-0.126c-0.119-0.459-0.367-1.14-0.591-1.619-0.036-0.076-0.066-0.145-0.066-0.152 0 0.007 0 0.003 0.003 0.003zM22.939 4.097c0.020 0.007 0.053 0.119 0.119 0.367 0.122 0.479 0.178 1.014 0.159 1.513-0.007 0.139-0.013 0.268-0.020 0.284l-0.010 0.033-0.172-0.056c-0.354-0.112-0.928-0.281-1.421-0.42-0.281-0.076-0.509-0.145-0.509-0.152 0-0.020 0.41-0.43 0.585-0.585 0.334-0.294 1.239-0.995 1.269-0.985zM23.167 4.13c0.010-0.010 1.368 0.225 1.986 0.344 0.459 0.089 1.127 0.228 1.166 0.245 0.020 0.007-0.050 0.046-0.271 0.145-0.872 0.393-1.52 0.747-2.164 1.176-0.169 0.112-0.311 0.205-0.314 0.205s-0.007-0.096-0.007-0.211c0-0.628-0.126-1.262-0.357-1.797-0.023-0.053-0.043-0.102-0.040-0.106zM26.679 4.824c0.010 0.010-0.033 0.278-0.073 0.436-0.119 0.492-0.439 1.223-0.832 1.91-0.069 0.122-0.132 0.221-0.139 0.225s-0.096-0.046-0.198-0.106c-0.383-0.225-0.819-0.436-1.295-0.634-0.132-0.056-0.248-0.102-0.251-0.109-0.023-0.020 1.041-0.724 1.602-1.061 0.446-0.271 1.173-0.674 1.186-0.661zM26.93 4.863c0.030 0 0.631 0.165 0.945 0.258 0.776 0.231 1.668 0.558 2.25 0.823l0.241 0.109-0.168 0.040c-1.421 0.327-2.636 0.704-3.809 1.179-0.096 0.040-0.182 0.073-0.188 0.073s0.026-0.076 0.069-0.169c0.354-0.75 0.581-1.533 0.638-2.2 0.003-0.063 0.013-0.112 0.023-0.112zM20.943 6.238c0.010-0.010 0.469 0.099 0.717 0.168 0.377 0.106 1.176 0.373 1.176 0.393 0 0.003-0.089 0.079-0.195 0.172-0.433 0.36-0.849 0.74-1.348 1.222-0.149 0.142-0.274 0.258-0.281 0.258s-0.010-0.020-0.007-0.046c0.076-0.555 0.059-1.269-0.046-1.992-0.010-0.093-0.020-0.172-0.017-0.175zM30.594 6.248c0.007 0.007-0.211 0.35-0.35 0.545-0.198 0.284-0.489 0.661-1.146 1.487-0.347 0.436-0.737 0.928-0.866 1.094-0.132 0.165-0.241 0.304-0.245 0.304s-0.046-0.059-0.092-0.132c-0.37-0.555-0.813-1.041-1.338-1.477-0.099-0.083-0.208-0.172-0.244-0.198s-0.066-0.053-0.066-0.056c0-0.010 0.562-0.251 0.988-0.423 0.747-0.304 1.764-0.667 2.527-0.902 0.4-0.126 0.826-0.248 0.833-0.241zM30.848 6.314c0.013-0.003 0.093 0.036 0.188 0.092 0.803 0.459 1.589 1.051 2.21 1.659 0.175 0.172 0.608 0.621 0.601 0.624 0 0-0.152 0.013-0.33 0.026-1.391 0.106-3.172 0.4-4.883 0.813-0.116 0.026-0.218 0.050-0.225 0.050s0.122-0.129 0.284-0.284c1.004-0.968 1.464-1.579 2.005-2.67 0.076-0.162 0.142-0.301 0.149-0.311-0.003 0-0.003 0 0 0zM23.491 7.067c0.046 0.010 0.476 0.211 0.8 0.373 0.297 0.149 0.743 0.387 0.767 0.406 0.003 0.003-0.155 0.086-0.35 0.182-0.621 0.311-1.153 0.605-1.708 0.942-0.159 0.096-0.291 0.175-0.294 0.175-0.013 0-0.010-0.013 0.079-0.175 0.297-0.542 0.535-1.189 0.671-1.82 0.013-0.050 0.026-0.083 0.036-0.083zM23.061 7.146c0.010 0.010-0.102 0.416-0.172 0.638-0.136 0.42-0.363 0.945-0.585 1.341-0.053 0.092-0.132 0.228-0.175 0.304l-0.083 0.132-0.185-0.178c-0.215-0.208-0.39-0.337-0.614-0.453-0.089-0.046-0.159-0.086-0.159-0.092 0-0.026 0.565-0.539 0.998-0.909 0.311-0.268 0.965-0.793 0.975-0.783zM25.688 8.227l0.162 0.106c0.37 0.241 0.806 0.562 1.14 0.842 0.188 0.155 0.552 0.482 0.624 0.562l0.040 0.043-0.268 0.076c-1.513 0.42-2.683 0.793-4.047 1.295-0.152 0.056-0.281 0.102-0.291 0.102-0.020 0-0.036 0.017 0.304-0.297 0.872-0.803 1.645-1.688 2.22-2.551l0.116-0.178zM24.997 8.399c0.007 0.007-0.446 0.644-0.717 1.004-0.324 0.43-0.899 1.15-1.295 1.619-0.165 0.195-0.307 0.357-0.314 0.36-0.010 0.003-0.013-0.046-0.013-0.122 0-0.4-0.102-0.826-0.281-1.189-0.076-0.152-0.089-0.188-0.073-0.205 0.063-0.056 1.024-0.605 1.632-0.932 0.41-0.218 1.051-0.542 1.061-0.535zM20.821 9.423c0.010 0 0.086 0.040 0.172 0.086 0.211 0.116 0.4 0.244 0.568 0.383 0.007 0.007-0.079 0.076-0.192 0.159-0.314 0.225-0.79 0.585-1.067 0.806-0.291 0.231-0.301 0.238-0.268 0.188 0.218-0.334 0.327-0.522 0.443-0.763 0.102-0.215 0.205-0.469 0.277-0.691 0.026-0.096 0.059-0.168 0.066-0.168zM21.935 10.295c0.016-0.003 0.036 0.026 0.125 0.159 0.188 0.281 0.334 0.657 0.37 0.961l0.007 0.066-0.453 0.175c-0.809 0.314-1.556 0.624-2.062 0.856-0.142 0.066-0.39 0.185-0.552 0.264-0.162 0.083-0.294 0.145-0.294 0.142s0.102-0.079 0.228-0.172c0.988-0.717 1.844-1.503 2.485-2.29 0.069-0.083 0.132-0.159 0.139-0.162h0.007zM21.422 10.421c0.013 0.013-0.363 0.439-0.621 0.7-0.638 0.651-1.269 1.16-2.052 1.655-0.099 0.063-0.188 0.119-0.198 0.126-0.023 0.013 0.007-0.020 0.35-0.393 0.218-0.235 0.383-0.433 0.572-0.677 0.126-0.162 0.149-0.185 0.33-0.314 0.486-0.35 1.606-1.11 1.619-1.097z"></path>
<path d="M7.116 24.101c-0.061 0-0.122 0.006-0.182 0.006-1.231 0.066-2.061 0.607-2.547 1.665-0.415 0.957-0.37 2.208 0.005 3.17 0.436 0.941 1.139 1.437 2.314 1.625 0.249 0.041 0.415 0.177 0.897 0.739l0.592 0.694h1.074l-0.714-0.72c-0.395-0.395-0.714-0.739-0.714-0.769s0.151-0.096 0.334-0.152c0.603-0.182 1.103-0.648 1.453-1.362 0.283-0.573 0.324-0.75 0.365-1.463 0.106-2.122-1.013-3.449-2.876-3.434l0 0.001zM8.057 29.651c-0.523 0.253-1.281 0.304-1.777 0.122-0.512-0.188-1.008-0.72-1.231-1.322-0.248-0.658-0.213-1.873 0.071-2.42 0.456-0.871 1.059-1.272 1.939-1.272 1.306 0 2.050 0.8 2.147 2.304 0.077 1.255-0.344 2.197-1.149 2.587l-0.001 0.001zM26.614 25.914c-0.451 0-0.795 0.182-1.028 0.542l-0.182 0.285v-0.74h-0.78v4.436h0.779v-1.418c0-1.297 0.016-1.448 0.197-1.803 0.25-0.487 0.679-0.729 1.095-0.613l0.279 0.081v-0.769h-0.36v-0.001zM22.032 25.873c-0.153 0-0.315 0.020-0.476 0.056-1.043 0.273-1.632 1.272-1.596 2.299 0 0.861 0.167 1.291 0.582 1.742 0.851 0.698 1.62 0.754 2.658 0.379 0.177-0.075 0.37-0.163 0.37-0.163v-0.698l-0.37 0.192c-0.84 0.366-1.473 0.366-1.98-0.065-0.323-0.329-0.466-0.724-0.531-1.175h3.144v-0.598c0-1.219-0.734-1.989-1.802-1.97h0.001zM20.761 27.818s0.116-0.761 0.547-1.059c0.207-0.146 0.445-0.217 0.678-0.217s0.466 0.075 0.658 0.222c0.395 0.304 0.461 1.048 0.461 1.048h-2.345v0.006h-0zM1.961 27.018c-0.845-0.512-1.22-0.881-1.175-1.317 0.131-1.205 1.62-1.038 2.445-0.582l0.006-0.811s-0.456-0.197-1.109-0.208c-1.002-0.015-1.65 0.314-1.954 0.982-0.446 0.987-0.051 1.731 1.376 2.562 0.801 0.466 1.155 0.871 1.155 1.312 0 0.912-1.099 1.23-2.233 0.658-0.233-0.116-0.431-0.213-0.441-0.213-0.041 0.258-0.020 0.877-0.020 0.877s0.348 0.146 0.871 0.247c1.296 0.258 2.475-0.35 2.587-1.337 0.097-0.927-0.238-1.413-1.508-2.172l-0 0.001zM33.515 25.863c-0.152 0-0.314 0.021-0.482 0.056-1.042 0.273-1.629 1.272-1.589 2.299 0 0.859 0.167 1.286 0.582 1.736 0.851 0.699 1.62 0.755 2.663 0.38 0.176-0.075 0.369-0.161 0.369-0.161v-0.699l-0.369 0.193c-0.842 0.365-1.475 0.365-1.98-0.066-0.325-0.329-0.466-0.719-0.532-1.175h3.139v-0.598c0-1.213-0.734-1.984-1.802-1.964l0.002-0.001zM32.244 27.808s0.117-0.759 0.548-1.064c0.207-0.147 0.445-0.218 0.678-0.218s0.466 0.075 0.659 0.223c0.395 0.304 0.461 1.053 0.461 1.053h-2.344l-0.001 0.005zM17.95 27.028c-0.845-0.511-1.219-0.881-1.174-1.317 0.131-1.205 1.62-1.038 2.445-0.582l0.006-0.811s-0.456-0.197-1.109-0.207c-1.002-0.015-1.65 0.314-1.954 0.982-0.445 0.987-0.045 1.731 1.377 2.562 0.8 0.466 1.154 0.865 1.154 1.306 0 0.912-1.099 1.235-2.233 0.658-0.232-0.116-0.43-0.212-0.441-0.212-0.041 0.258-0.020 0.877-0.020 0.877s0.344 0.141 0.865 0.247c1.297 0.259 2.477-0.348 2.588-1.335 0.096-0.922-0.238-1.408-1.504-2.168v-0.001zM38.097 25.903c-0.451 0-0.8 0.183-1.028 0.542l-0.182 0.283v-0.739h-0.78v4.435h0.779v-1.418c0-1.296 0.016-1.448 0.197-1.802 0.25-0.486 0.679-0.729 1.094-0.613l0.279 0.081v-0.77h-0.36zM11.749 27.002v-2.825h-0.786v6.258h3.306v-0.739h-2.52v-2.694zM29.93 27.883l-0.648 1.686-0.623-1.695-0.633-1.879h-0.805c0.521 1.478 1.089 2.982 1.661 4.44 0.248 0.006 0.496 0 0.744 0l0.875-2.197 0.891-2.242h-0.769s-0.34 0.891-0.694 1.888l0.001-0.001zM13.561 22.472c0.127 0 0.232-0.041 0.319-0.128 0.086-0.086 0.131-0.187 0.131-0.314s-0.045-0.232-0.131-0.314c-0.087-0.081-0.188-0.122-0.314-0.122-0.128 0-0.233 0.041-0.319 0.127-0.087 0.086-0.127 0.192-0.127 0.314 0 0.128 0.041 0.233 0.127 0.314 0.081 0.081 0.187 0.122 0.314 0.122v0.001zM13.282 21.752c0.075-0.075 0.167-0.11 0.284-0.11 0.11 0 0.202 0.035 0.279 0.11 0.075 0.075 0.116 0.167 0.116 0.279s-0.041 0.208-0.116 0.283c-0.077 0.075-0.168 0.111-0.279 0.111-0.112 0-0.203-0.035-0.279-0.111-0.075-0.075-0.116-0.172-0.116-0.283s0.035-0.203 0.11-0.279zM13.47 22.071h0.051c0.036 0 0.071 0.035 0.102 0.101l0.061 0.137h0.096l-0.075-0.152c-0.031-0.061-0.061-0.096-0.096-0.106 0.045-0.010 0.080-0.026 0.106-0.056 0.025-0.026 0.035-0.062 0.035-0.102 0-0.046-0.014-0.081-0.045-0.107-0.035-0.029-0.091-0.045-0.163-0.045h-0.161v0.567h0.081v-0.238l0.010 0zM13.47 21.807h0.071c0.051 0 0.087 0.010 0.107 0.026s0.024 0.035 0.024 0.071c0 0.066-0.041 0.096-0.116 0.096h-0.087v-0.193h0.001zM0.483 22.020c0-0.197-0.006-0.344-0.010-0.431h0.005c0.020 0.102 0.045 0.178 0.066 0.229l0.755 1.686h0.127l0.755-1.701c0.020-0.046 0.041-0.116 0.066-0.213h0.006c-0.015 0.168-0.020 0.315-0.020 0.431v1.488h0.258v-2.212h-0.324l-0.694 1.539c-0.026 0.061-0.061 0.152-0.106 0.273h-0.010c-0.015-0.060-0.050-0.151-0.101-0.262l-0.678-1.554h-0.344v2.212h0.248v-1.483l0.004-0.001zM3.054 22.025h0.223v1.378h-0.223v-1.378zM3.166 21.519c0.046 0 0.086-0.016 0.116-0.046s0.051-0.070 0.051-0.116c0-0.045-0.015-0.086-0.051-0.116-0.031-0.031-0.071-0.047-0.117-0.047s-0.086 0.016-0.116 0.047c-0.031 0.030-0.051 0.071-0.051 0.116 0 0.051 0.016 0.086 0.051 0.116s0.071 0.046 0.116 0.046h0.001zM4.867 23.433v-0.243c-0.122 0.091-0.253 0.137-0.389 0.137-0.163 0-0.294-0.056-0.391-0.163-0.096-0.106-0.147-0.253-0.147-0.436 0-0.192 0.051-0.344 0.157-0.46 0.102-0.111 0.233-0.167 0.395-0.167 0.132 0 0.258 0.041 0.375 0.122v-0.258c-0.106-0.056-0.228-0.081-0.365-0.081-0.253 0-0.451 0.081-0.598 0.238-0.146 0.157-0.222 0.37-0.222 0.627 0 0.229 0.066 0.421 0.202 0.568 0.142 0.151 0.324 0.228 0.547 0.228 0.172-0.005 0.313-0.041 0.435-0.112zM5.505 22.698c0-0.182 0.041-0.329 0.116-0.43 0.071-0.091 0.157-0.137 0.258-0.137 0.086 0 0.147 0.016 0.192 0.051v-0.264c-0.035-0.015-0.085-0.020-0.151-0.020-0.091 0-0.172 0.031-0.244 0.087-0.075 0.060-0.136 0.151-0.171 0.267h-0.006v-0.323h-0.253v1.579h0.253v-0.811h0.005zM6.959 23.54c0.238 0 0.43-0.077 0.572-0.229 0.142-0.151 0.213-0.354 0.213-0.607 0-0.258-0.065-0.456-0.197-0.603-0.131-0.147-0.314-0.218-0.552-0.218s-0.43 0.071-0.572 0.208c-0.152 0.151-0.232 0.364-0.232 0.638 0 0.238 0.065 0.436 0.202 0.582 0.142 0.152 0.329 0.228 0.567 0.228v0.001zM6.599 22.253c0.096-0.102 0.223-0.152 0.38-0.152 0.163 0 0.285 0.051 0.375 0.152 0.091 0.106 0.136 0.258 0.136 0.46 0 0.193-0.041 0.344-0.127 0.446-0.086 0.106-0.213 0.163-0.38 0.163-0.163 0-0.289-0.056-0.385-0.163s-0.142-0.253-0.142-0.446c-0.010-0.192 0.041-0.348 0.142-0.46zM8.852 23.402c0.096-0.086 0.148-0.192 0.148-0.324 0-0.116-0.041-0.212-0.116-0.289-0.062-0.061-0.157-0.116-0.294-0.172-0.122-0.051-0.197-0.096-0.238-0.132-0.041-0.041-0.066-0.091-0.066-0.163 0-0.066 0.026-0.116 0.076-0.157 0.051-0.041 0.116-0.060 0.203-0.060 0.136 0 0.253 0.036 0.36 0.112v-0.253c-0.102-0.051-0.213-0.075-0.34-0.075-0.163 0-0.3 0.045-0.401 0.131-0.106 0.086-0.157 0.197-0.157 0.329 0 0.116 0.035 0.213 0.101 0.283 0.056 0.060 0.151 0.122 0.283 0.177 0.127 0.056 0.213 0.106 0.258 0.147s0.066 0.091 0.066 0.151c0 0.147-0.101 0.224-0.298 0.224-0.152 0-0.289-0.050-0.411-0.151v0.273c0.11 0.066 0.243 0.096 0.389 0.096 0.188-0.010 0.334-0.056 0.435-0.147l0.001-0.001zM10.057 21.883c-0.238 0-0.43 0.071-0.572 0.208-0.151 0.151-0.232 0.364-0.232 0.638 0 0.238 0.066 0.436 0.202 0.582 0.142 0.152 0.329 0.228 0.567 0.228 0.244 0 0.43-0.077 0.572-0.229 0.142-0.151 0.213-0.354 0.213-0.607 0-0.258-0.066-0.456-0.197-0.603-0.137-0.147-0.319-0.218-0.552-0.218l-0.001 0.001zM10.548 22.714c0 0.193-0.041 0.344-0.127 0.446-0.086 0.106-0.213 0.163-0.38 0.163-0.163 0-0.289-0.056-0.385-0.163s-0.142-0.253-0.142-0.446c0-0.203 0.051-0.36 0.152-0.466 0.096-0.101 0.222-0.152 0.38-0.152s0.283 0.051 0.374 0.152c0.081 0.111 0.127 0.263 0.127 0.466h0.001zM11.232 23.504h0.253v-1.367h0.37v-0.213h-0.37v-0.244c0-0.222 0.086-0.333 0.264-0.333 0.060 0 0.121 0.015 0.166 0.041v-0.228c-0.045-0.020-0.106-0.025-0.182-0.025-0.136 0-0.248 0.041-0.339 0.127-0.106 0.101-0.163 0.232-0.163 0.41v0.259h-0.267v0.212h0.267v1.362l0.002-0.001zM12.27 23.073c0 0.309 0.136 0.466 0.415 0.466 0.101 0 0.177-0.016 0.238-0.052v-0.217c-0.046 0.035-0.102 0.051-0.163 0.051-0.086 0-0.146-0.020-0.182-0.066s-0.056-0.122-0.056-0.228v-0.891h0.401v-0.213h-0.401v-0.466c-0.087 0.030-0.172 0.056-0.253 0.081v0.384h-0.273v0.213h0.273v0.937l0.001 0.001zM39.444 25.985c-0.086-0.081-0.188-0.122-0.314-0.122-0.128 0-0.233 0.041-0.319 0.128-0.086 0.085-0.127 0.192-0.127 0.314 0 0.127 0.041 0.232 0.126 0.314s0.192 0.122 0.319 0.122c0.126 0 0.232-0.041 0.319-0.127 0.085-0.087 0.131-0.188 0.131-0.314-0.005-0.128-0.051-0.233-0.136-0.315l0.001-0zM39.404 26.583c-0.075 0.075-0.167 0.11-0.279 0.11-0.11 0-0.202-0.035-0.279-0.11-0.075-0.077-0.116-0.172-0.116-0.285 0-0.11 0.035-0.202 0.111-0.279 0.075-0.075 0.167-0.11 0.283-0.11 0.11 0 0.202 0.035 0.279 0.11 0.075 0.077 0.116 0.168 0.116 0.279 0 0.117-0.035 0.208-0.116 0.285zM39.176 26.324c0.045-0.010 0.081-0.031 0.106-0.056 0.026-0.026 0.035-0.062 0.035-0.102 0-0.045-0.015-0.081-0.045-0.106-0.035-0.029-0.091-0.045-0.163-0.045h-0.161v0.567h0.081v-0.238h0.050c0.035 0 0.070 0.035 0.101 0.101l0.060 0.136h0.096l-0.075-0.152c-0.026-0.066-0.056-0.096-0.087-0.106l0.001 0.001zM39.12 26.273h-0.087v-0.192h0.071c0.051 0 0.086 0.009 0.106 0.025s0.025 0.035 0.025 0.071c0 0.066-0.041 0.096-0.116 0.096l0.001-0zM24.994 21.858h0.071v-0.567h0.187v-0.071h-0.446v0.071h0.188v0.567h-0zM25.423 21.432c0-0.055 0-0.101-0.004-0.126 0.005 0.030 0.015 0.051 0.020 0.066l0.218 0.487h0.035l0.218-0.491c0.006-0.015 0.011-0.035 0.020-0.061-0.005 0.051-0.005 0.091-0.005 0.122v0.43h0.076v-0.638h-0.091l-0.197 0.44c-0.005 0.016-0.020 0.046-0.030 0.081h-0.006c-0.004-0.020-0.015-0.041-0.029-0.075l-0.197-0.446h-0.102v0.639h0.071v-0.426l0.004-0.001z"></path>
</symbol>
<symbol id="icon-bitcoin" viewBox="0 0 32 32">
<path d="M16 3.184c-2.81 0-5.478 0.892-7.715 2.581-0.236 0.178-0.283 0.514-0.105 0.75s0.514 0.283 0.75 0.105c2.050-1.547 4.494-2.365 7.070-2.365 6.477 0 11.746 5.269 11.746 11.746s-5.269 11.746-11.746 11.746-11.746-5.269-11.746-11.746c0-2.833 1.023-5.569 2.879-7.704 0.194-0.223 0.17-0.561-0.053-0.755s-0.561-0.17-0.755 0.053c-2.026 2.33-3.142 5.315-3.142 8.407 0 7.067 5.749 12.816 12.816 12.816s12.816-5.749 12.816-12.816-5.749-12.816-12.816-12.816z"></path>
<path d="M31.82 13.592c-0.044-0.292-0.318-0.493-0.609-0.449s-0.494 0.317-0.449 0.609c0.112 0.739 0.168 1.495 0.168 2.248 0 8.232-6.697 14.929-14.929 14.929s-14.929-6.697-14.929-14.929 6.697-14.929 14.929-14.929c3.258 0 6.354 1.031 8.952 2.981 2.514 1.886 4.403 4.571 5.321 7.558 0.087 0.283 0.386 0.441 0.669 0.354s0.441-0.386 0.355-0.669c-0.984-3.202-3.009-6.079-5.702-8.1-2.785-2.090-6.103-3.195-9.595-3.195-4.274 0-8.292 1.664-11.314 4.686s-4.686 7.040-4.686 11.314 1.664 8.292 4.686 11.314c3.022 3.022 7.040 4.686 11.314 4.686s8.292-1.664 11.314-4.686c3.022-3.022 4.686-7.040 4.686-11.314 0-0.806-0.061-1.616-0.18-2.408z"></path>
<path d="M19.978 14.986c0.108-0.232 0.168-0.489 0.168-0.761v-3.031c0-0.998-0.812-1.81-1.81-1.81h-0.569v-1.377c0-0.296-0.24-0.535-0.535-0.535s-0.535 0.24-0.535 0.535v1.377h-1.178v-1.377c0-0.296-0.24-0.535-0.535-0.535s-0.535 0.24-0.535 0.535v1.377h-3.212c-0.296 0-0.535 0.24-0.535 0.535s0.24 0.535 0.535 0.535h0.749v7.713c0 0.296 0.24 0.535 0.535 0.535s0.535-0.24 0.535-0.535v-2.132h6.647c0.408 0 0.74 0.332 0.74 0.74v3.873c0 0.408-0.332 0.74-0.74 0.74h-6.647v-1.187c0-0.296-0.24-0.535-0.535-0.535s-0.535 0.24-0.535 0.535v1.187h-0.749c-0.296 0-0.535 0.24-0.535 0.535s0.24 0.535 0.535 0.535h3.212v1.534c0 0.296 0.24 0.535 0.535 0.535s0.535-0.24 0.535-0.535v-1.534h1.178v1.534c0 0.296 0.24 0.535 0.535 0.535s0.535-0.24 0.535-0.535v-1.534h1.937c0.998 0 1.81-0.812 1.81-1.81v-3.873c0-0.905-0.667-1.657-1.536-1.79zM19.075 14.226c0 0.408-0.332 0.74-0.74 0.74h-5.28v-4.511h5.28c0.408 0 0.74 0.332 0.74 0.74v3.031z"></path>
</symbol>
<symbol id="icon-close_40px" viewBox="0 0 32 32">
<path d="M23.734 10.304l-1.504-1.504-5.963 5.962-5.962-5.962-1.504 1.504 5.962 5.962-5.962 5.963 1.504 1.504 5.962-5.963 5.963 5.963 1.504-1.504-5.963-5.963 5.963-5.962z"></path>
</symbol>
<symbol id="icon-menu-40px" viewBox="0 0 32 32">
<path d="M6.4 11.734v-2.134h19.2v2.134h-19.2zM6.4 17.066h19.2v-2.133h-19.2v2.133zM6.4 22.4h19.2v-2.134h-19.2v2.134z"></path>
</symbol>
<symbol id="icon-menu-24px" viewBox="0 0 48 32">
<path d="M0 5.339v-5.335h48.009v5.335h-48.009zM0 18.673h48.009v-5.333h-48.009v5.333zM0 32.010h48.009v-5.335h-48.009v5.335z"></path>
</symbol>
<symbol id="icon-check16-15" viewBox="0 0 34 32">
<path d="M4.268-0.007h25.611c2.357 0 4.268 1.911 4.268 4.268v23.477c0 2.357-1.911 4.268-4.268 4.268h-25.611c-2.357 0-4.268-1.911-4.268-4.268v-23.477c0-2.357 1.911-4.268 4.268-4.268z"></path>
<path fill="#fff" style="fill: var(--color2, #fff)" d="M13.864 22.001l-5.566-5.31-1.895 1.795 7.461 7.118 16.015-15.279-1.882-1.795-14.133 13.471z"></path>
<path fill="none" stroke="#fff" style="stroke: var(--color2, #fff)" stroke-linejoin="miter" stroke-linecap="butt" stroke-miterlimit="4" stroke-width="0.8533" d="M13.864 22.001l-5.566-5.31-1.895 1.795 7.461 7.118 16.015-15.279-1.882-1.795-14.133 13.471z"></path>
</symbol>
<symbol id="icon-frame16-15" viewBox="0 0 34 32">
<path d="M30.353 3.551v24.898h-26.558v-24.898h26.558zM30.353-0.007h-26.558c-2.087 0-3.795 1.601-3.795 3.558v24.898c0 1.957 1.707 3.558 3.795 3.558h26.558c2.087 0 3.795-1.601 3.795-3.558v-24.898c0-1.957-1.707-3.558-3.795-3.558z"></path>
</symbol>
<symbol id="icon-check11-8" viewBox="0 0 42 32">
<path d="M6.267 15.206l-0.221-0.211-0.221 0.208-3.087 2.927 0.243 0.234 11.416 10.887 0.221-0.211 24.273-23.155-0.243-0.231-3.045-2.904-0.221 0.211-20.984 20.001-8.13-7.756z"></path>
</symbol>
<symbol id="icon-send" viewBox="0 0 32 32">
<path d="M32.006 0l-32.006 18.003 10.229 3.787 15.776-14.789-12 16.19 0.009 0.003-0.012-0.003v8.815l5.736-6.692 7.268 2.691 5-28.005z"></path>
</symbol>
<symbol id="icon-name12-12" viewBox="0 0 32 32">
<path d="M16.003 16.003c4.419 0 8.002-3.582 8.002-8.002s-3.582-8.002-8.002-8.002v0c-4.419 0-8.002 3.582-8.002 8.002s3.582 8.002 8.002 8.002v0zM16.003 20.004c-5.34 0-16.003 2.68-16.003 8.002v2c0 1.099 0.901 2 2 2h28.005c1.099 0 2-0.901 2-2v-2c0-5.321-10.663-8.002-16.003-8.002z"></path>
</symbol>
<symbol id="icon-tel13-13" viewBox="0 0 32 32">
<path d="M27.428 20.859l-4.202-0.48c-0.116-0.014-0.25-0.023-0.386-0.023-0.909 0-1.733 0.369-2.328 0.965l-3.046 3.046c-4.719-2.436-8.469-6.187-10.839-10.767l-0.065-0.139 3.064-3.057c0.596-0.596 0.965-1.419 0.965-2.328 0-0.136-0.008-0.27-0.024-0.401l0.002 0.016-0.48-4.17c-0.199-1.656-1.595-2.927-3.288-2.927-0.001 0-0.003 0-0.004 0h-2.862c-1.87-0.005-3.425 1.55-3.311 3.418 0.878 14.13 12.18 25.416 26.294 26.294 1.868 0.114 3.425-1.44 3.425-3.311v-2.863c0-0.005 0-0.010 0-0.016 0-1.682-1.266-3.068-2.898-3.257l-0.015-0.001z"></path>
</symbol>
<symbol id="icon-mail15-12" viewBox="0 0 43 32">
<path d="M37.349-0.004h-32.013c-2.201 0-3.983 1.801-3.983 4.002l-0.019 24.010c0 2.201 1.801 4.002 4.002 4.002h32.013c2.201 0 4.002-1.801 4.002-4.002v-24.010c0-2.201-1.801-4.002-4.002-4.002zM36.549 8.501l-14.145 8.841c-0.302 0.188-0.668 0.3-1.060 0.3s-0.759-0.112-1.069-0.305l0.009 0.005-14.147-8.844c-0.504-0.301-0.836-0.844-0.836-1.464 0-0.939 0.761-1.699 1.699-1.699 0.349 0 0.673 0.105 0.943 0.286l-0.006-0.004 13.406 8.385 13.406-8.385c0.264-0.176 0.588-0.282 0.937-0.282 0.939 0 1.699 0.761 1.699 1.699 0 0.62-0.332 1.162-0.828 1.459l-0.008 0.004z"></path>
</symbol>
<symbol id="icon-close11" viewBox="0 0 32 32">
<path d="M32.020 3.225l-3.225-3.225-12.784 12.784-12.784-12.784-3.225 3.225 12.785 12.785-12.784 12.784 3.225 3.225 12.784-12.785 12.785 12.785 3.225-3.225-12.785-12.784 12.785-12.784z"></path>
</symbol>
<symbol id="icon-envelope1" viewBox="0 0 43 32">
<path d="M38.683-0.004h-34.681c-2.206 0-4.002 1.795-4.002 4.002v24.010c0 2.206 1.795 4.002 4.002 4.002h34.681c2.206 0 4.002-1.795 4.002-4.002v-24.010c0-2.206-1.795-4.002-4.002-4.002zM38.683 2.664c0.181 0 0.355 0.037 0.512 0.104l-17.853 15.473-17.853-15.473c0.151-0.065 0.327-0.104 0.512-0.104h34.681zM38.683 29.342h-34.681c-0.737 0-1.334-0.597-1.334-1.334v0-22.423l17.799 15.428c0.233 0.203 0.539 0.327 0.875 0.327s0.642-0.124 0.877-0.328l-0.002 0.001 17.799-15.428v22.423c0 0.737-0.597 1.334-1.334 1.334v0z"></path>
</symbol>
<symbol id="icon-smartphone1" viewBox="0 0 20 32">
<path d="M17.003 0h-14.006c-1.655 0-3.001 1.347-3.001 3.001v26.011c0 1.655 1.347 3.001 3.001 3.001h14.006c1.655 0 3.001-1.347 3.001-3.001v-26.011c0-1.655-1.347-3.001-3.001-3.001zM2.997 2.001h14.006c0.553 0 1 0.448 1 1v0 21.009h-16.007v-21.009c0-0.553 0.448-1 1-1v0zM17.003 30.013h-14.006c-0.553 0-1-0.448-1-1v0-3.001h16.007v3.001c0 0.553-0.448 1-1 1v0z"></path>
<path d="M4.706 27.489c0.18 0.164 0.293 0.399 0.293 0.66s-0.113 0.497-0.292 0.66l-0.001 0.001c-0.186 0.17-0.435 0.275-0.708 0.275s-0.522-0.104-0.709-0.275l0.001 0.001c-0.18-0.164-0.293-0.399-0.293-0.66s0.113-0.497 0.292-0.66l0.001-0.001c0.186-0.17 0.435-0.275 0.708-0.275s0.522 0.104 0.709 0.275l-0.001-0.001z"></path>
</symbol>
<symbol id="icon-smartphone" viewBox="0 0 20 32">
<path d="M17 0h-14c-1.654 0-3 1.346-3 3v26c0 1.654 1.346 3 3 3h14c1.654 0 3-1.346 3-3v-26c0-1.654-1.346-3-3-3zM3 2h14c0.552 0 1 0.448 1 1v21h-16v-21c0-0.552 0.448-1 1-1zM17 30h-14c-0.552 0-1-0.448-1-1v-3h16v3c0 0.552-0.448 1-1 1z"></path>
<path d="M4.707 27.478c0.391 0.365 0.391 0.956 0 1.321s-1.024 0.365-1.414 0c-0.391-0.365-0.391-0.956 0-1.321s1.024-0.365 1.414 0z"></path>
</symbol>
<symbol id="icon-envelope" viewBox="0 0 43 32">
<path d="M38.667 0h-34.667c-2.206 0-4 1.794-4 4v24c0 2.206 1.794 4 4 4h34.667c2.206 0 4-1.794 4-4v-24c0-2.206-1.794-4-4-4zM38.667 2.667c0.181 0 0.353 0.038 0.511 0.103l-17.844 15.466-17.844-15.466c0.158-0.066 0.33-0.103 0.511-0.103h34.667zM38.667 29.333h-34.667c-0.736 0-1.333-0.598-1.333-1.333v-22.413l17.793 15.421c0.251 0.217 0.563 0.326 0.874 0.326s0.622-0.108 0.874-0.326l17.793-15.421v22.413c0 0.736-0.598 1.333-1.333 1.333z"></path>
</symbol>
<symbol id="icon-logo6" viewBox="0 0 57 32">
<path d="M28.495 14.617c-0.203-0.262-0.326-0.596-0.326-0.958 0-0.036 0.001-0.071 0.004-0.107l-0 0.005v-1.538c0-0.471 0.107-0.829 0.321-1.075 0.213-0.245 0.581-0.367 1.101-0.366 0.489 0 0.837 0.105 1.042 0.313 0.224 0.266 0.333 0.591 0.308 0.92v0.362h-0.875v-0.366c0.003-0.119-0.005-0.239-0.026-0.358-0.015-0.087-0.060-0.161-0.125-0.212l-0.001-0.001c-0.079-0.053-0.175-0.084-0.279-0.084-0.013 0-0.026 0.001-0.039 0.001l0.002-0c-0.011-0.001-0.025-0.001-0.038-0.001-0.11 0-0.212 0.033-0.297 0.090l0.002-0.001c-0.072 0.058-0.124 0.139-0.145 0.232l-0 0.003c-0.022 0.105-0.035 0.226-0.035 0.351 0 0.010 0 0.021 0 0.031l-0-0.002v1.866c-0.014 0.18 0.025 0.36 0.112 0.524 0.045 0.056 0.104 0.1 0.172 0.126l0.003 0.001c0.051 0.020 0.111 0.032 0.173 0.032 0.019 0 0.037-0.001 0.055-0.003l-0.002 0c0.011 0.001 0.024 0.001 0.037 0.001 0.102 0 0.197-0.032 0.274-0.087l-0.002 0.001c0.068-0.056 0.115-0.135 0.13-0.224l0-0.002c0.020-0.124 0.030-0.249 0.027-0.374v-0.379h0.875v0.346c0.002 0.027 0.003 0.059 0.003 0.091 0 0.332-0.115 0.638-0.308 0.878l0.002-0.003c-0.201 0.228-0.544 0.342-1.048 0.342s-0.884-0.122-1.1-0.376zM32.139 14.633c-0.221-0.24-0.332-0.588-0.332-1.050v-1.618c0-0.457 0.11-0.803 0.332-1.037s0.59-0.351 1.109-0.35c0.515 0 0.882 0.117 1.104 0.35 0.221 0.235 0.333 0.58 0.333 1.037v1.617c0 0.457-0.112 0.808-0.337 1.049s-0.59 0.361-1.1 0.361-0.886-0.122-1.109-0.36zM33.655 14.245c0.079-0.149 0.115-0.314 0.105-0.478v-1.981c0.001-0.016 0.002-0.035 0.002-0.053 0-0.152-0.039-0.296-0.107-0.421l0.002 0.005c-0.046-0.057-0.107-0.101-0.176-0.128l-0.003-0.001c-0.051-0.020-0.11-0.031-0.171-0.031-0.021 0-0.042 0.001-0.062 0.004l0.002-0c-0.018-0.002-0.038-0.004-0.059-0.004-0.062 0-0.121 0.011-0.176 0.032l0.003-0.001c-0.072 0.027-0.133 0.071-0.179 0.128l-0.001 0.001c-0.080 0.147-0.116 0.308-0.105 0.469v1.99c-0.011 0.165 0.025 0.329 0.105 0.479 0.051 0.050 0.114 0.091 0.185 0.118 0.067 0.027 0.144 0.042 0.225 0.042s0.158-0.016 0.229-0.044l-0.004 0.001c0.071-0.028 0.133-0.068 0.185-0.118v-0.010zM35.738 10.626h0.942l0.708 2.984 0.725-2.984h0.916l0.093 4.307h-0.678l-0.073-2.994-0.699 2.994h-0.544l-0.724-3.005-0.067 3.005h-0.685l0.085-4.307zM40.179 10.626h1.468c0.845 0 1.268 0.408 1.268 1.223 0 0.781-0.445 1.171-1.336 1.17h-0.5v1.914h-0.906l0.005-4.308zM41.432 12.466c0.090 0.010 0.18 0.003 0.267-0.021 0.085-0.023 0.165-0.062 0.231-0.115 0.104-0.146 0.15-0.316 0.131-0.486 0.001-0.014 0.001-0.031 0.001-0.047 0-0.122-0.016-0.241-0.047-0.353l0.002 0.009c-0.014-0.046-0.037-0.085-0.067-0.119l0 0c-0.032-0.035-0.070-0.064-0.112-0.085l-0.002-0.001c-0.105-0.045-0.228-0.071-0.357-0.071-0.017 0-0.033 0-0.050 0.001l0.002-0h-0.352v1.288h0.352zM44.221 10.626h0.973l0.998 4.307h-0.845l-0.197-0.993h-0.868l-0.203 0.993h-0.857l0.998-4.307zM45.053 13.441l-0.339-1.808-0.339 1.808h0.677zM46.999 10.626h0.635l1.213 2.457v-2.457h0.752v4.307h-0.603l-1.221-2.566v2.566h-0.777l0.002-4.307zM51.36 13.29l-1.009-2.659h0.85l0.616 1.708 0.578-1.708h0.832l-0.997 2.659v1.642h-0.869v-1.643zM29.894 16.817v0.225h-0.739v1.75h-0.31v-1.75h-0.743v-0.225h1.792zM32.212 18.793h-0.239c-0.002 0-0.004 0-0.007 0-0.023 0-0.044-0.007-0.061-0.019l0 0c-0.017-0.011-0.031-0.026-0.039-0.045l-0-0.001-0.214-0.469h-1.026l-0.213 0.469c-0.007 0.021-0.018 0.039-0.033 0.053l-0 0c-0.017 0.012-0.039 0.019-0.062 0.019-0.002 0-0.004-0-0.006-0h-0.239l0.906-1.976h0.315l0.917 1.968zM30.711 18.059h0.855l-0.363-0.804c-0.023-0.051-0.046-0.112-0.064-0.176l-0.003-0.010c-0.013 0.037-0.023 0.074-0.034 0.105l-0.033 0.083-0.358 0.803zM33.773 18.599c0.057 0.003 0.114 0.003 0.171 0 0.049-0.004 0.097-0.012 0.145-0.023 0.044-0.009 0.088-0.021 0.131-0.036 0.040-0.014 0.080-0.031 0.121-0.049v-0.444h-0.362c-0.001 0-0.002 0-0.003 0-0.017 0-0.033-0.006-0.046-0.016l0 0c-0.006-0.004-0.010-0.010-0.014-0.016l-0-0c-0.003-0.005-0.004-0.011-0.004-0.018 0-0.001 0-0.001 0-0.002v0-0.151h0.703v0.757c-0.11 0.068-0.237 0.123-0.372 0.158l-0.010 0.002c-0.075 0.019-0.15 0.033-0.227 0.041-0.088 0.009-0.176 0.012-0.265 0.012-0.003 0-0.007 0-0.012 0-0.159 0-0.312-0.027-0.455-0.077l0.010 0.003c-0.14-0.049-0.26-0.119-0.364-0.208l0.002 0.001c-0.097-0.086-0.176-0.19-0.231-0.307l-0.002-0.006c-0.053-0.117-0.083-0.253-0.083-0.397 0-0.004 0-0.009 0-0.013v0.001c-0-0.004-0-0.008-0-0.012 0-0.145 0.030-0.283 0.084-0.407l-0.003 0.007c0.052-0.117 0.132-0.224 0.234-0.313 0.103-0.089 0.227-0.158 0.363-0.205 0.155-0.051 0.32-0.076 0.485-0.074 0.084 0 0.169 0.005 0.252 0.017 0.074 0.011 0.146 0.027 0.215 0.050 0.064 0.020 0.124 0.047 0.181 0.078 0.055 0.031 0.108 0.065 0.158 0.103l-0.087 0.122c-0.007 0.011-0.017 0.020-0.029 0.026l-0 0c-0.012 0.007-0.026 0.010-0.042 0.011h-0c-0.021-0-0.040-0.006-0.057-0.016l0.001 0c-0.037-0.017-0.066-0.033-0.094-0.050l0.005 0.003c-0.034-0.019-0.074-0.037-0.115-0.052l-0.006-0.002c-0.046-0.017-0.102-0.032-0.16-0.043l-0.007-0.001c-0.065-0.011-0.141-0.017-0.218-0.017-0.004 0-0.008 0-0.013 0h0.001c-0.003-0-0.007-0-0.011-0-0.121 0-0.238 0.020-0.346 0.057l0.008-0.002c-0.101 0.035-0.192 0.088-0.267 0.156-0.072 0.067-0.129 0.149-0.166 0.241l-0.002 0.005c-0.038 0.098-0.061 0.211-0.061 0.329s0.022 0.232 0.063 0.336l-0.002-0.006c0.039 0.093 0.101 0.178 0.181 0.249 0.074 0.068 0.164 0.121 0.264 0.156 0.115 0.034 0.237 0.047 0.359 0.039zM36.661 18.568h0.989v0.225h-1.291v-1.976h0.309l-0.007 1.75zM38.68 18.793h-0.309v-1.976h0.309v1.976zM39.832 16.827c0.019 0.009 0.034 0.021 0.047 0.036l0 0 1.324 1.489c-0.001-0.011-0.001-0.023-0.001-0.035s0-0.025 0.001-0.037l-0 0.002v-1.472h0.27v1.984h-0.156c-0.003 0-0.007 0-0.010 0-0.021 0-0.040-0.004-0.058-0.012l0.001 0c-0.019-0.010-0.035-0.022-0.048-0.037l-0-0-1.323-1.488v1.536h-0.259v-1.976h0.161c0.018 0 0.035 0.003 0.051 0.009zM43.755 16.817v0.217h-1.098v0.652h0.89v0.21h-0.89v0.674h1.098v0.218h-1.417v-1.971h1.417zM11.287 4.616l13.758 3.372v11.818l-13.758-3.371v-11.82zM10.404 3.608v13.402l15.521 3.806v-13.4l-15.521-3.807z"></path>
<path d="M18.723 27.036l-15.523-3.809v-13.4l15.523 3.808v13.401z"></path>
<path d="M10.662 4.464l13.578 3.33-5.775 4.987-13.58-3.332 5.776-4.986zM10.404 3.608l-7.204 6.219 15.523 3.808 7.203-6.22-15.521-3.807zM19.596 26.283l6.329-5.466-6.33-1.552v7.019z"></path>
</symbol>
<symbol id="icon-logo5" viewBox="0 0 57 32">
<path d="M14.271 23.859c0.13 0.147 0.199 0.332 0.196 0.521 0.001 0.012 0.001 0.026 0.001 0.039 0 0.117-0.026 0.227-0.073 0.326l0.002-0.005c-0.056 0.119-0.135 0.218-0.232 0.296l-0.002 0.001c-0.221 0.152-0.494 0.243-0.789 0.243-0.032 0-0.064-0.001-0.096-0.003l0.004 0h-1.549v-3.302h1.517c0.027-0.002 0.058-0.003 0.090-0.003 0.279 0 0.539 0.083 0.756 0.225l-0.005-0.003c0.098 0.076 0.176 0.171 0.227 0.277 0.051 0.108 0.074 0.224 0.068 0.341 0.009 0.181-0.053 0.361-0.176 0.505-0.118 0.131-0.281 0.222-0.462 0.258 0.205 0.034 0.391 0.134 0.523 0.283zM12.455 23.361h0.649c0.147 0.010 0.293-0.029 0.412-0.11 0.047-0.039 0.085-0.088 0.109-0.144l0.001-0.003c0.019-0.043 0.030-0.092 0.030-0.145 0-0.011-0.001-0.022-0.001-0.033l0 0.001c0.001-0.008 0.001-0.018 0.001-0.028 0-0.053-0.011-0.104-0.031-0.15l0.001 0.002c-0.025-0.058-0.062-0.108-0.108-0.147l-0.001-0c-0.105-0.071-0.234-0.113-0.373-0.113-0.018 0-0.036 0.001-0.054 0.002l0.002-0h-0.638v0.867zM13.579 24.627c0.051-0.040 0.091-0.091 0.118-0.149l0.001-0.003c0.022-0.046 0.034-0.101 0.034-0.158 0-0.009-0-0.018-0.001-0.027l0 0.001c0-0.007 0.001-0.016 0.001-0.024 0-0.059-0.013-0.115-0.037-0.165l0.001 0.002c-0.029-0.061-0.070-0.112-0.121-0.151l-0.001-0.001c-0.112-0.076-0.249-0.121-0.397-0.121-0.015 0-0.030 0-0.045 0.001l0.002-0h-0.68v0.908h0.689c0.155 0.008 0.308-0.032 0.435-0.115zM17.372 25.279l-0.843-1.291h-0.317v1.291h-0.726v-3.302h1.374c0.029-0.002 0.064-0.003 0.098-0.003 0.323 0 0.622 0.107 0.862 0.287l-0.004-0.003c0.192 0.179 0.308 0.416 0.327 0.666 0.002 0.021 0.002 0.045 0.002 0.069 0 0.241-0.086 0.461-0.228 0.633l0.001-0.002c-0.171 0.175-0.396 0.296-0.649 0.335l-0.006 0.001 0.899 1.32h-0.789zM16.211 23.538h0.594c0.412 0 0.619-0.166 0.619-0.5 0-0.008 0.001-0.017 0.001-0.027 0-0.063-0.013-0.122-0.035-0.176l0.001 0.003c-0.028-0.067-0.068-0.124-0.118-0.171l-0-0c-0.113-0.085-0.255-0.136-0.41-0.136-0.020 0-0.040 0.001-0.060 0.003l0.003-0h-0.601l0.007 1.005zM21.34 24.614h-1.447l-0.255 0.665h-0.761l1.328-3.265h0.824l1.323 3.265h-0.761l-0.25-0.665zM21.146 24.114l-0.529-1.394-0.529 1.394h1.057zM26.307 25.279h-0.72l-1.616-2.245v2.245h-0.719v-3.303h0.719l1.616 2.259v-2.259h0.72v3.303zM30.42 24.489c-0.149 0.249-0.376 0.452-0.652 0.582-0.28 0.132-0.608 0.209-0.955 0.209-0.021 0-0.041-0-0.062-0.001l0.003 0h-1.282v-3.302h1.283c0.018-0 0.039-0.001 0.060-0.001 0.345 0 0.673 0.075 0.968 0.209l-0.015-0.006c0.276 0.128 0.503 0.329 0.652 0.576 0.148 0.269 0.226 0.565 0.226 0.867s-0.077 0.597-0.226 0.866zM29.595 24.41c0.196-0.205 0.317-0.482 0.318-0.788v-0c0-0.289-0.113-0.569-0.318-0.788-0.223-0.177-0.509-0.284-0.82-0.284-0.029 0-0.058 0.001-0.086 0.003l0.004-0h-0.5v2.138h0.5c0.025 0.002 0.054 0.003 0.083 0.003 0.311 0 0.596-0.107 0.823-0.285l-0.003 0.002zM21.791 3.608s9.301 3.215 9.104 7.868v7.869s-9.294-3.216-9.101-7.869l-0.003-7.868zM39.181 17.503c1.757-1.107 3.788-1.792 5.91-1.994v-2.464c-2.444 0.863-4.518 2.427-5.91 4.458z"></path>
<path d="M38.126 18.245c1.437-2.651 3.93-4.696 6.965-5.716v-7.098s-13.246 4.58-12.966 11.206v11.204s0.59-0.205 1.519-0.589c0-0.358 0-0.72 0.043-1.083 0.274-3.075 1.871-5.926 4.44-7.924z"></path>
<path d="M36.866 22.407c0.069-0.777 0.225-1.546 0.463-2.294-1.599 1.725-2.568 3.867-2.769 6.123-0.020 0.213-0.030 0.426-0.036 0.645 1.105-0.483 1.942-0.895 2.761-1.334l-0.214 0.105c-0.235-1.067-0.304-2.16-0.206-3.244zM37.393 22.448c-0.026 0.273-0.041 0.589-0.041 0.909 0 0.718 0.074 1.419 0.216 2.095l-0.012-0.066c3.619-1.983 7.686-5.047 7.528-8.749v-0.323c-2.586 0.265-5.005 1.3-6.886 2.946-0.415 0.932-0.702 2.014-0.804 3.148l-0.003 0.040z"></path>
</symbol>
<symbol id="icon-logo4" viewBox="0 0 57 32">
<path d="M12.879 11.255h-0.002c-1.279 0-2.316 0.921-2.316 2.058v0.002c0 1.137 1.037 2.058 2.316 2.058h0.002c1.279 0 2.316-0.922 2.316-2.058v-0.001c0-1.137-1.037-2.059-2.316-2.059zM29.973 10.597c-0.004-1.579-0.711-3.092-1.967-4.209s-2.959-1.745-4.735-1.749c-1.777 0.003-3.481 0.631-4.737 1.748s-1.964 2.63-1.968 4.209v8.706s13.406-1.327 13.407-8.705v-0.002zM5.867 22.16c0.003 1.099 0.496 2.151 1.37 2.928s2.058 1.214 3.294 1.218c1.236-0.003 2.42-0.441 3.294-1.218s1.367-1.829 1.37-2.927v-6.058s-9.328 0.924-9.328 6.057zM10.531 23.245c-0.242 0-0.477-0.063-0.678-0.183-0.195-0.115-0.35-0.281-0.447-0.48l-0.003-0.007c-0.059-0.121-0.093-0.264-0.093-0.415 0-0.075 0.009-0.148 0.025-0.219l-0.001 0.007c0.047-0.211 0.163-0.404 0.334-0.556s0.388-0.255 0.625-0.297c0.072-0.013 0.154-0.021 0.239-0.021 0.168 0 0.328 0.030 0.476 0.085l-0.009-0.003c0.223 0.082 0.414 0.221 0.548 0.4s0.206 0.388 0.206 0.603c0.001 0.143-0.030 0.285-0.092 0.417-0.066 0.139-0.155 0.256-0.263 0.352l-0.001 0.001c-0.113 0.101-0.248 0.181-0.397 0.236-0.139 0.053-0.3 0.083-0.467 0.083-0 0-0.001 0-0.001 0h0v-0.004zM19.958 22.648h-0.9v0.93h-0.469v-2.276h1.482v0.38h-1.013v0.588h0.9v0.378zM22.21 22.492c0 0.224-0.039 0.42-0.118 0.589s-0.193 0.299-0.341 0.391c-0.139 0.087-0.308 0.138-0.489 0.138-0.006 0-0.012-0-0.018-0h0.001c-0.189 0-0.357-0.045-0.505-0.136-0.149-0.094-0.267-0.226-0.341-0.382l-0.002-0.006c-0.078-0.165-0.123-0.358-0.123-0.561 0-0.007 0-0.014 0-0.021v0.001-0.112c0-0.224 0.040-0.421 0.12-0.591 0.081-0.171 0.195-0.302 0.342-0.392 0.148-0.092 0.316-0.138 0.506-0.138s0.357 0.046 0.505 0.138c0.148 0.091 0.262 0.221 0.342 0.392 0.081 0.17 0.122 0.366 0.122 0.589v0.101zM21.736 22.388c0-0.238-0.043-0.42-0.128-0.544-0.076-0.113-0.203-0.186-0.348-0.186-0.006 0-0.013 0-0.019 0l0.001-0c-0.005-0-0.012-0-0.018-0-0.144 0-0.271 0.073-0.346 0.183l-0.001 0.001c-0.085 0.122-0.129 0.301-0.13 0.538v0.111c0 0.232 0.043 0.412 0.128 0.54s0.208 0.192 0.369 0.192c0.006 0 0.012 0 0.018 0 0.143 0 0.269-0.073 0.343-0.183l0.001-0.001c0.084-0.124 0.127-0.304 0.128-0.541v-0.111zM23.731 22.98c0-0.004 0-0.009 0-0.013 0-0.077-0.037-0.145-0.093-0.189l-0.001-0c-0.062-0.048-0.175-0.098-0.338-0.15-0.15-0.047-0.278-0.1-0.399-0.163l0.014 0.006c-0.259-0.14-0.388-0.328-0.388-0.564 0-0.123 0.034-0.233 0.103-0.328 0.070-0.097 0.17-0.172 0.299-0.227 0.13-0.054 0.276-0.081 0.437-0.081 0.163 0 0.307 0.029 0.435 0.089 0.127 0.059 0.226 0.141 0.295 0.249 0.071 0.107 0.107 0.229 0.107 0.365h-0.469c0-0.104-0.032-0.185-0.098-0.242-0.066-0.059-0.158-0.087-0.276-0.087-0.115 0-0.204 0.025-0.267 0.074-0.058 0.042-0.096 0.109-0.096 0.185 0 0.002 0 0.004 0 0.006v-0c0 0.074 0.037 0.136 0.111 0.186 0.075 0.050 0.185 0.097 0.33 0.14 0.267 0.080 0.461 0.18 0.583 0.299s0.183 0.267 0.183 0.444c0 0.197-0.075 0.352-0.224 0.464s-0.349 0.167-0.601 0.167c-0.175 0-0.334-0.032-0.478-0.096-0.135-0.057-0.247-0.148-0.328-0.261l-0.002-0.002c-0.070-0.105-0.112-0.234-0.112-0.373 0-0.005 0-0.010 0-0.015v0.001h0.47c0 0.251 0.15 0.377 0.45 0.377 0.111 0 0.198-0.022 0.261-0.067 0.057-0.041 0.094-0.107 0.094-0.182 0-0.003-0-0.006-0-0.009v0zM26.233 21.682h-0.697v1.896h-0.469v-1.896h-0.686v-0.38h1.853v0.38zM27.87 22.591h-0.9v0.61h1.056v0.377h-1.525v-2.276h1.522v0.38h-1.053v0.542h0.9v0.367zM29.144 22.744h-0.373v0.833h-0.469v-2.276h0.845c0.269 0 0.476 0.060 0.622 0.18s0.219 0.289 0.219 0.508c0 0.155-0.034 0.285-0.101 0.389-0.075 0.109-0.179 0.194-0.3 0.245l-0.005 0.002 0.492 0.93v0.021h-0.503l-0.427-0.832zM28.77 22.365h0.379c0.117 0 0.208-0.029 0.273-0.089 0.060-0.059 0.097-0.141 0.097-0.231 0-0.006-0-0.012-0-0.018l0 0.001c0-0.108-0.030-0.192-0.092-0.253s-0.154-0.092-0.28-0.092h-0.377v0.683zM31.611 22.776v0.802h-0.469v-2.276h0.888c0.171 0 0.321 0.031 0.45 0.094 0.13 0.062 0.23 0.151 0.3 0.267 0.069 0.115 0.105 0.245 0.105 0.392 0 0.223-0.077 0.399-0.229 0.528-0.153 0.128-0.363 0.193-0.633 0.193h-0.411zM31.611 22.396h0.419c0.124 0 0.219-0.029 0.283-0.087 0.066-0.059 0.099-0.142 0.099-0.25 0-0.005 0-0.011 0-0.017 0-0.098-0.037-0.187-0.099-0.254l0 0c-0.066-0.068-0.156-0.104-0.272-0.106h-0.43v0.715zM34.577 22.591h-0.9v0.61h1.056v0.377h-1.525v-2.276h1.522v0.38h-1.053v0.542h0.9v0.367zM36.752 21.682h-0.697v1.896h-0.469v-1.896h-0.688v-0.38h1.853v0.38zM38.39 22.591h-0.899v0.61h1.056v0.377h-1.525v-2.276h1.522v0.38h-1.053v0.542h0.9v0.367zM39.663 22.744h-0.373v0.833h-0.469v-2.276h0.846c0.269 0 0.476 0.060 0.622 0.18s0.219 0.289 0.219 0.508c0 0.155-0.034 0.285-0.101 0.389-0.075 0.109-0.179 0.194-0.301 0.245l-0.005 0.002 0.492 0.93v0.021h-0.503l-0.427-0.832zM39.29 22.365h0.378c0.117 0 0.209-0.029 0.273-0.089 0.060-0.059 0.098-0.141 0.098-0.232 0-0.006-0-0.012-0-0.018l0 0.001c0-0.108-0.030-0.192-0.092-0.253-0.060-0.061-0.154-0.092-0.279-0.092h-0.377v0.683zM42.045 22.981c0-0.004 0-0.009 0-0.013 0-0.077-0.037-0.146-0.094-0.189l-0.001-0c-0.062-0.048-0.175-0.098-0.338-0.15-0.15-0.047-0.278-0.1-0.399-0.163l0.014 0.006c-0.259-0.14-0.388-0.328-0.388-0.564 0-0.123 0.035-0.233 0.103-0.328 0.070-0.097 0.17-0.172 0.299-0.227 0.13-0.054 0.276-0.081 0.437-0.081 0.163 0 0.307 0.029 0.435 0.089 0.127 0.059 0.226 0.141 0.295 0.249 0.071 0.107 0.107 0.229 0.107 0.365h-0.469c0-0.104-0.032-0.185-0.098-0.242-0.066-0.059-0.158-0.087-0.276-0.087-0.115 0-0.204 0.025-0.267 0.074-0.058 0.042-0.096 0.109-0.096 0.186 0 0.002 0 0.003 0 0.005v-0c0 0.074 0.037 0.136 0.111 0.186s0.185 0.097 0.33 0.14c0.267 0.080 0.461 0.18 0.583 0.299s0.183 0.267 0.183 0.444c0 0.197-0.075 0.352-0.224 0.464s-0.349 0.167-0.601 0.167c-0.175 0-0.334-0.032-0.478-0.096-0.135-0.057-0.247-0.148-0.328-0.261l-0.002-0.002c-0.070-0.105-0.112-0.234-0.112-0.373 0-0.005 0-0.010 0-0.015v0.001h0.47c0 0.251 0.15 0.377 0.45 0.377 0.111 0 0.198-0.022 0.261-0.067 0.057-0.041 0.094-0.107 0.094-0.182 0-0.003-0-0.006-0-0.009v0z"></path>
</symbol>
<symbol id="icon-logo3" viewBox="0 0 57 32">
<path d="M19.418 26.188c0.009 0 0.017 0.002 0.025 0.005s0.015 0.007 0.021 0.013l-0-0 0.116 0.111c-0.091 0.090-0.202 0.162-0.328 0.211-0.129 0.048-0.278 0.076-0.434 0.076-0.011 0-0.021-0-0.032-0l0.002 0c-0.149 0.003-0.298-0.021-0.436-0.071-0.128-0.046-0.237-0.114-0.33-0.2l0.001 0.001c-0.090-0.085-0.161-0.188-0.21-0.302l-0.002-0.006c-0.047-0.114-0.075-0.246-0.075-0.385 0-0.004 0-0.008 0-0.012v0.001c-0-0.006-0-0.013-0-0.020 0-0.272 0.118-0.516 0.305-0.684l0.001-0.001c0.099-0.087 0.218-0.155 0.349-0.201 0.143-0.048 0.296-0.072 0.45-0.070 0.008-0 0.018-0 0.028-0 0.139 0 0.273 0.024 0.398 0.067l-0.009-0.003c0.115 0.044 0.221 0.104 0.313 0.179l-0.098 0.118c-0.007 0.008-0.015 0.015-0.024 0.021l-0 0c-0.010 0.006-0.021 0.009-0.034 0.009-0.002 0-0.004-0-0.006-0l0 0c-0.016-0.001-0.030-0.005-0.043-0.012l0 0-0.052-0.032-0.073-0.041c-0.066-0.032-0.144-0.057-0.225-0.070l-0.005-0.001c-0.048-0.008-0.104-0.013-0.161-0.013-0.004 0-0.009 0-0.013 0h0.001c-0.003-0-0.007-0-0.011-0-0.112 0-0.219 0.020-0.319 0.055l0.007-0.002c-0.098 0.034-0.182 0.085-0.254 0.15l0.001-0.001c-0.073 0.068-0.128 0.149-0.164 0.237-0.038 0.089-0.059 0.193-0.059 0.302 0 0.004 0 0.008 0 0.011v-0.001c-0 0.004-0 0.008-0 0.013 0 0.11 0.022 0.215 0.061 0.311l-0.002-0.005c0.036 0.087 0.091 0.167 0.162 0.236 0.067 0.064 0.149 0.115 0.242 0.147 0.095 0.034 0.196 0.051 0.299 0.051 0.059 0.001 0.119-0.003 0.178-0.010 0.148-0.015 0.28-0.074 0.385-0.164l-0.001 0.001c0.015-0.012 0.034-0.020 0.055-0.020h0zM22.777 25.629c0 0.003 0 0.008 0 0.012 0 0.138-0.029 0.269-0.081 0.387l0.002-0.006c-0.052 0.12-0.126 0.222-0.218 0.304l-0.001 0.001c-0.097 0.086-0.211 0.154-0.337 0.198l-0.007 0.002c-0.132 0.045-0.284 0.071-0.442 0.071s-0.31-0.026-0.452-0.074l0.010 0.003c-0.132-0.047-0.245-0.115-0.342-0.202l0.001 0.001c-0.093-0.084-0.168-0.187-0.219-0.303l-0.002-0.006c-0.050-0.116-0.078-0.251-0.078-0.393s0.029-0.277 0.081-0.4l-0.003 0.007c0.050-0.115 0.125-0.22 0.221-0.309 0.097-0.085 0.213-0.15 0.341-0.194 0.132-0.046 0.284-0.072 0.442-0.072s0.31 0.026 0.452 0.075l-0.010-0.003c0.129 0.045 0.246 0.114 0.343 0.201 0.096 0.088 0.171 0.192 0.22 0.305 0.054 0.127 0.081 0.261 0.078 0.396zM22.472 25.629c0-0.005 0-0.011 0-0.017 0-0.108-0.020-0.211-0.058-0.305l0.002 0.006c-0.071-0.182-0.216-0.322-0.397-0.384l-0.005-0.001c-0.096-0.033-0.206-0.052-0.321-0.052s-0.225 0.019-0.329 0.054l0.007-0.002c-0.096 0.034-0.178 0.085-0.246 0.15l0-0c-0.068 0.064-0.122 0.143-0.156 0.232l-0.001 0.004c-0.035 0.094-0.055 0.202-0.055 0.316s0.020 0.222 0.058 0.322l-0.002-0.006c0.071 0.182 0.217 0.322 0.399 0.383l0.005 0.001c0.207 0.068 0.435 0.068 0.643 0 0.093-0.033 0.177-0.083 0.245-0.148 0.070-0.069 0.123-0.149 0.156-0.236 0.039-0.101 0.058-0.209 0.055-0.316zM25.069 25.961l0.031 0.070c0.011-0.025 0.021-0.048 0.033-0.070 0.013-0.027 0.026-0.050 0.039-0.072l-0.002 0.003 0.743-1.174c0.015-0.020 0.028-0.033 0.043-0.037s0.033-0.007 0.051-0.007c0.003 0 0.007 0 0.010 0l-0-0h0.22v1.909h-0.26v-1.463c-0.001-0.010-0.001-0.021-0.001-0.033s0-0.023 0.001-0.035l-0 0.002-0.748 1.19c-0.010 0.018-0.025 0.033-0.043 0.043l-0.001 0c-0.018 0.010-0.040 0.016-0.063 0.016-0 0-0.001 0-0.001 0h-0.042c-0 0-0.001 0-0.002 0-0.023 0-0.044-0.006-0.063-0.016l0.001 0c-0.018-0.010-0.033-0.025-0.043-0.043l-0-0.001-0.77-1.198v1.532h-0.251v-1.905h0.219c0.003-0 0.007-0 0.010-0 0.018 0 0.036 0.002 0.052 0.007l-0.001-0c0.018 0.008 0.032 0.021 0.041 0.037l0.759 1.175c0.014 0.020 0.026 0.042 0.037 0.066l0.001 0.003zM27.865 25.866v0.715h-0.29v-1.906h0.649c0.123-0.002 0.244 0.012 0.362 0.042 0.094 0.023 0.181 0.064 0.256 0.119 0.062 0.049 0.111 0.112 0.144 0.184l0.001 0.003c0.035 0.078 0.051 0.161 0.050 0.244 0 0.003 0 0.008 0 0.012 0 0.172-0.082 0.325-0.209 0.422l-0.001 0.001c-0.075 0.057-0.163 0.1-0.258 0.126-0.098 0.028-0.211 0.044-0.327 0.044-0.008 0-0.016-0-0.024-0l-0.351-0.005zM27.865 25.661h0.352c0.076 0.001 0.153-0.009 0.226-0.029 0.062-0.018 0.116-0.046 0.164-0.083l-0.001 0.001c0.082-0.068 0.133-0.169 0.133-0.282 0-0.002 0-0.003-0-0.005v0c0-0.006 0.001-0.013 0.001-0.021 0-0.049-0.011-0.095-0.030-0.137l0.001 0.002c-0.024-0.052-0.059-0.095-0.101-0.13l-0.001-0.001c-0.097-0.065-0.217-0.104-0.345-0.104-0.016 0-0.032 0.001-0.048 0.002l0.002-0h-0.352v0.786zM31.774 26.583h-0.229c-0.001 0-0.003 0-0.004 0-0.022 0-0.043-0.007-0.060-0.018l0 0c-0.016-0.011-0.029-0.026-0.038-0.044l-0-0.001-0.197-0.461h-0.994l-0.205 0.461c-0.018 0.037-0.055 0.062-0.099 0.062-0.001 0-0.002 0-0.003-0h-0.23l0.873-1.909h0.302l0.884 1.909zM30.334 25.874h0.82l-0.346-0.777c-0.027-0.059-0.048-0.118-0.066-0.179l-0.034 0.1c-0.010 0.030-0.021 0.059-0.032 0.081l-0.343 0.776zM33.031 24.683c0.017 0.008 0.032 0.020 0.043 0.034l1.273 1.44v-1.482h0.26v1.909h-0.145c-0.001 0-0.002 0-0.003 0-0.020 0-0.040-0.004-0.057-0.012l0.001 0c-0.018-0.009-0.034-0.021-0.047-0.035l-0-0-1.27-1.438c0.001 0.010 0.001 0.021 0.001 0.033s-0 0.023-0.001 0.034l0-0.002v1.419h-0.26v-1.909h0.154c0.018 0 0.036 0.003 0.052 0.009zM36.751 25.824v0.758h-0.291v-0.757l-0.804-1.15h0.26c0.002-0 0.004-0 0.006-0 0.021 0 0.040 0.006 0.056 0.016l-0-0c0.016 0.013 0.029 0.027 0.039 0.043l0.503 0.742c0.020 0.032 0.038 0.061 0.052 0.089s0.027 0.054 0.037 0.081l0.037-0.082c0.014-0.030 0.031-0.059 0.050-0.087l0.496-0.747c0.011-0.015 0.023-0.029 0.037-0.040l0-0c0.016-0.012 0.036-0.019 0.057-0.019 0.002 0 0.004 0 0.006 0h0.263l-0.805 1.155zM24.925 21.47c0.126 0.014 0.254 0.025 0.384 0.035 1.962-0.763 3.622-2.011 4.773-3.588s1.739-3.415 1.695-5.282l-2.162-1.879c0.439 1.988 0.234 4.043-0.594 5.935s-2.245 3.547-4.095 4.779z"></path>
<path d="M24.153 21.383l0.058 0.011c1.976-1.228 3.481-2.943 4.323-4.922s0.981-4.133 0.4-6.182l-3.080-2.676c1.245 2.2 1.747 4.662 1.445 7.099-0.301 2.438-1.392 4.75-3.147 6.67zM34.598 14.84c-0.523 2.052-1.794 3.902-3.624 5.277-0.5 0.38-1.064 0.737-1.658 1.043l-0.065 0.030c1.49-0.38 2.859-1.053 4.003-1.966s2.031-2.042 2.592-3.3l-1.249-1.084z"></path>
<path d="M34.108 14.539l-1.778-1.545c-0.034 1.762-0.611 3.483-1.669 4.986s-2.562 2.732-4.352 3.559h0.009c0.399 0 0.797-0.021 1.194-0.062 1.673-0.594 3.152-1.538 4.303-2.748s1.94-2.65 2.295-4.19zM24.41 6.485l-2.122-1.845c-1.897 0.637-3.528 1.756-4.68 3.212s-1.772 3.179-1.778 4.946c0.007 1.952 0.763 3.847 2.149 5.383 1.385 1.536 3.321 2.628 5.501 3.101 1.946-2.060 3.086-4.605 3.252-7.266s-0.647-5.299-2.323-7.531zM39.010 14.254c-0.007-2.316-1.070-4.535-2.955-6.173s-4.44-2.561-7.105-2.568c-0.006 0-0.014-0-0.021-0-1.281 0-2.512 0.213-3.66 0.606l0.079-0.024 12.99 11.287c0.423-0.92 0.671-1.995 0.672-3.128v-0z"></path>
</symbol>
<symbol id="icon-logo2" viewBox="0 0 57 32">
<path d="M26.729 3.165h-0.073c-0.112-0.007-0.224-0.010-0.336-0.012h-0.243c-0.212 0-0.428 0.005-0.642 0.016-0.007-0.001-0.016-0.001-0.024-0.001s-0.017 0-0.025 0.001l0.001-0c-2.059 0.12-3.971 0.635-5.699 1.47l0.090-0.039-0.23 0.111v11.81l0.54-0.183c0.474-0.163 0.978-0.309 1.5-0.445 1.29-0.345 2.775-0.553 4.305-0.573l0.012-0v1.552c-0.193 0.001-0.38 0.006-0.568 0.016h-0.045c-1.212 0.068-2.348 0.25-3.442 0.537l0.12-0.027c-1.503 0.382-2.82 0.91-4.044 1.587l0.087-0.044v-15.146c1.195-0.711 2.578-1.29 4.042-1.665l0.11-0.024c1.173-0.315 2.52-0.499 3.91-0.505h0.231c0.273 0.007 0.539 0.019 0.788 0.038 0.658 0.046 1.31 0.15 1.949 0.311v1.527c-0.544-0.133-1.189-0.234-1.849-0.283l-0.039-0.002-0.039-0.003c-0.132-0.011-0.263-0.022-0.386-0.022zM29.417 4.725c0.339 0.026 0.69 0.038 1.044 0.038 1.464-0.006 2.881-0.198 4.231-0.554l-0.117 0.026c1.503-0.384 2.819-0.912 4.043-1.587l-0.087 0.044v14.876c-1.196 0.71-2.578 1.289-4.043 1.665l-0.11 0.024c-1.173 0.314-2.52 0.498-3.91 0.503h-0.004c-0.029 0-0.062 0-0.096 0-1.020 0-2.010-0.128-2.955-0.368l0.083 0.018v-14.973c0.229 0.053 0.466 0.102 0.706 0.142 0.394 0.067 0.81 0.115 1.214 0.145zM36.987 4.841l-0.54 0.181c-0.496 0.167-0.997 0.316-1.5 0.449-1.344 0.36-2.888 0.569-4.48 0.575h-0.004c-0.352 0-0.676-0.010-0.989-0.030l-0.43-0.028v12.149l0.37 0.032c0.342 0.030 0.696 0.045 1.052 0.045 1.257-0.006 2.473-0.172 3.631-0.48l-0.1 0.023c1.059-0.269 1.977-0.608 2.848-1.031l-0.088 0.039 0.23-0.111v-11.813z"></path>
<path d="M19.061 24.114c-0.145-0.15-0.348-0.243-0.572-0.243-0.010 0-0.020 0-0.030 0.001l0.001-0c-0.004-0-0.008-0-0.012-0-0.121 0-0.236 0.024-0.341 0.067l0.006-0.002c-0.205 0.082-0.364 0.243-0.442 0.444l-0.002 0.005c-0.043 0.107-0.063 0.22-0.062 0.335v2.024c-0.005 0.142 0.022 0.284 0.079 0.415 0.048 0.104 0.117 0.196 0.203 0.271 0.081 0.068 0.175 0.117 0.277 0.144 0.099 0.027 0.201 0.042 0.302 0.042 0.113 0.001 0.224-0.023 0.326-0.070 0.304-0.135 0.512-0.434 0.512-0.781v-0.226h-0.53v0.18c0 0.004 0 0.008 0 0.012 0 0.060-0.011 0.118-0.032 0.171l0.001-0.003c-0.018 0.045-0.044 0.083-0.077 0.114l-0 0c-0.061 0.047-0.137 0.076-0.221 0.077h-0c-0.009 0.001-0.020 0.002-0.031 0.002-0.089 0-0.168-0.043-0.217-0.11l-0.001-0.001c-0.044-0.071-0.071-0.158-0.071-0.251 0-0.007 0-0.014 0-0.021l-0 0.001v-1.887c-0.003-0.105 0.019-0.208 0.065-0.302 0.049-0.075 0.132-0.124 0.227-0.124 0.011 0 0.022 0.001 0.033 0.002l-0.001-0c0.003-0 0.006-0 0.010-0 0.092 0 0.174 0.045 0.226 0.114l0.001 0.001c0.055 0.071 0.088 0.162 0.088 0.26 0 0.004-0 0.008-0 0.012v-0.001 0.175h0.524v-0.206c0-0.003 0-0.006 0-0.009 0-0.124-0.024-0.243-0.067-0.352l0.002 0.006c-0.041-0.111-0.102-0.205-0.177-0.285l0 0zM22.204 24.091c-0.161-0.137-0.371-0.221-0.601-0.223h-0c-0.108 0-0.215 0.020-0.316 0.057-0.218 0.078-0.391 0.239-0.483 0.443l-0.002 0.005c-0.053 0.123-0.080 0.257-0.077 0.392v1.94c-0.004 0.137 0.023 0.272 0.077 0.397 0.048 0.105 0.117 0.197 0.205 0.271 0.081 0.075 0.176 0.133 0.279 0.171 0.101 0.037 0.208 0.057 0.316 0.057 0.231-0.001 0.442-0.087 0.603-0.229l-0.001 0.001c0.084-0.076 0.152-0.168 0.199-0.271 0.054-0.125 0.081-0.261 0.077-0.397v-1.941c0-0.005 0-0.011 0-0.017 0-0.135-0.029-0.264-0.080-0.381l0.002 0.006c-0.049-0.111-0.117-0.205-0.199-0.283l-0-0zM21.957 26.707c0.001 0.009 0.001 0.019 0.001 0.030 0 0.099-0.041 0.188-0.106 0.251l-0 0c-0.067 0.056-0.154 0.091-0.249 0.091s-0.182-0.034-0.25-0.091l0.001 0c-0.066-0.063-0.106-0.152-0.106-0.25 0-0.011 0-0.022 0.002-0.032l-0 0.001v-1.941c-0.001-0.009-0.001-0.019-0.001-0.030 0-0.098 0.041-0.187 0.106-0.25l0-0c0.067-0.056 0.154-0.091 0.249-0.091s0.182 0.034 0.25 0.091l-0.001-0c0.066 0.063 0.106 0.152 0.106 0.25 0 0.011-0 0.021-0.001 0.032l0-0.001v1.941zM26.331 27.574v-3.675h-0.508l-0.668 1.945h-0.009l-0.674-1.945h-0.503v3.674h0.525v-2.235h0.010l0.514 1.58h0.262l0.518-1.58h0.010v2.235h0.525zM29.313 24.157c-0.081-0.091-0.183-0.16-0.297-0.201-0.108-0.036-0.232-0.057-0.361-0.057-0.007 0-0.014 0-0.021 0h-0.779v3.675h0.524v-1.435h0.269c0.164 0.007 0.326-0.027 0.473-0.1 0.12-0.068 0.217-0.163 0.286-0.278l0.002-0.003c0.060-0.098 0.101-0.206 0.12-0.32 0.018-0.116 0.028-0.249 0.028-0.385 0-0.012-0-0.023-0-0.035l0 0.002c0.005-0.176-0.012-0.353-0.051-0.525-0.037-0.132-0.104-0.246-0.193-0.338l0 0zM29.043 25.277c-0.002 0.070-0.020 0.136-0.050 0.194l0.001-0.003c-0.030 0.056-0.077 0.101-0.133 0.128l-0.002 0.001c-0.065 0.030-0.14 0.047-0.22 0.047-0.010 0-0.019-0-0.028-0.001l0.001 0h-0.239v-1.249h0.27c0.008-0 0.016-0.001 0.025-0.001 0.077 0 0.149 0.017 0.214 0.048l-0.003-0.001c0.054 0.031 0.096 0.078 0.122 0.134l0.001 0.002c0.029 0.065 0.044 0.134 0.046 0.205v0.244c0 0.085 0.005 0.174 0 0.252h-0.005zM31.793 23.899h-0.429l-0.81 3.675h0.524l0.154-0.789h0.714l0.154 0.789h0.523l-0.829-3.675zM31.31 26.284l0.258-1.332h0.010l0.256 1.332h-0.523zM35.176 26.113h-0.010l-0.79-2.213h-0.504v3.675h0.523v-2.21h0.011l0.8 2.209h0.493v-3.674h-0.523v2.213zM38.375 23.899l-0.421 1.461h-0.011l-0.421-1.461h-0.554l0.719 2.122v1.553h0.524v-1.553l0.719-2.121h-0.555zM17.601 28.611h0.252v0.708h0.171v-0.708h0.251v-0.145h-0.674v0.146zM19.722 28.466l-0.331 0.853h0.182l0.070-0.194h0.34l0.073 0.194h0.187l-0.339-0.853h-0.182zM19.696 28.982l0.116-0.316 0.116 0.316h-0.232zM21.819 29.005h0.197v0.11c-0.055 0.044-0.126 0.072-0.203 0.072h-0c-0.004 0-0.008 0-0.012 0-0.068 0-0.129-0.032-0.169-0.081l-0-0c-0.040-0.057-0.063-0.127-0.063-0.203 0-0.007 0-0.013 0.001-0.020l-0 0.001c0-0.19 0.082-0.285 0.245-0.285 0.006-0.001 0.012-0.001 0.018-0.001 0.084 0 0.155 0.058 0.174 0.136l0 0.001 0.169-0.033c-0.036-0.166-0.156-0.251-0.362-0.251-0.003-0-0.007-0-0.011-0-0.11 0-0.211 0.042-0.287 0.11l0-0c-0.076 0.075-0.124 0.18-0.124 0.296 0 0.011 0 0.022 0.001 0.033l-0-0.001c-0 0.006-0 0.013-0 0.020 0 0.115 0.041 0.22 0.11 0.301l-0.001-0.001c0.075 0.078 0.181 0.126 0.298 0.126 0.009 0 0.018-0 0.027-0.001l-0.001 0c0.004 0 0.009 0 0.014 0 0.134 0 0.257-0.052 0.348-0.137l-0 0v-0.336h-0.37v0.144zM23.96 28.466h-0.173v0.853h0.597v-0.145h-0.425v-0.708zM25.771 28.466h-0.173v0.853h0.173v-0.853zM27.541 29.035l-0.349-0.57h-0.167v0.853h0.16v-0.557l0.343 0.557h0.172v-0.853h-0.158v0.57zM29.142 28.943h0.425v-0.145h-0.425v-0.187h0.457v-0.146h-0.63v0.853h0.648v-0.145h-0.475v-0.231zM33.022 28.802h-0.336v-0.336h-0.171v0.853h0.171v-0.373h0.336v0.373h0.172v-0.853h-0.172v0.337zM34.632 28.943h0.427v-0.145h-0.427v-0.187h0.459v-0.146h-0.629v0.853h0.646v-0.145h-0.475v-0.231zM36.815 28.944c0.149-0.023 0.224-0.102 0.224-0.237 0.001-0.007 0.001-0.015 0.001-0.024 0-0.068-0.033-0.128-0.085-0.166l-0.001-0c-0.063-0.032-0.138-0.051-0.216-0.051-0.012 0-0.023 0-0.035 0.001l0.002-0h-0.362v0.853h0.172v-0.357h0.034c0.004-0 0.009-0 0.014-0 0.034 0 0.066 0.007 0.094 0.020l-0.001-0.001c0.025 0.015 0.046 0.037 0.061 0.062l0.186 0.271h0.205l-0.104-0.166c-0.047-0.083-0.111-0.152-0.187-0.203l-0.002-0.001zM36.642 28.825h-0.126v-0.214h0.135c0.011-0.001 0.023-0.001 0.036-0.001 0.049 0 0.097 0.008 0.141 0.023l-0.003-0.001c0.023 0.021 0.037 0.050 0.037 0.083 0 0.037-0.018 0.069-0.045 0.090l-0 0c-0.043 0.014-0.092 0.021-0.142 0.021-0.011 0-0.022-0-0.033-0.001l0.002 0zM38.461 28.943h0.425v-0.145h-0.425v-0.187h0.459v-0.146h-0.632v0.853h0.648v-0.145h-0.475v-0.231z"></path>
</symbol>
<symbol id="icon-logo1" viewBox="0 0 57 32">
<path d="M20.268 3.733l3.738 3.538-6.938-0.004v17.168h18.134v-6.564l3.734 3.535v-17.673h-18.668zM35.038 17.455l-10.598-10.033h10.598v10.033zM31.748 21.923h-11.81v-11.545h0.835v10.764h10.976v0.781zM22.727 26.721l-0.436 0.899-0.436-0.899h-0.366l0.637 1.198v0.698h0.331v-0.698l0.635-1.198h-0.364zM23.275 28.617l0.154-0.442h0.734l0.155 0.442h0.344l-0.717-1.896h-0.296l-0.716 1.896h0.342zM23.796 27.123l0.275 0.786h-0.549l0.275-0.787zM25.533 27.864c-0.045 0.067-0.071 0.149-0.071 0.238 0 0.001 0 0.002 0 0.003v-0c0 0.16 0.056 0.29 0.168 0.389s0.263 0.149 0.45 0.149c0.188 0 0.349-0.051 0.485-0.153l0.107 0.126h0.367l-0.278-0.33c0.109-0.149 0.164-0.341 0.164-0.574h-0.275c0 0.128-0.027 0.244-0.079 0.348l-0.366-0.432 0.129-0.094c0.078-0.053 0.144-0.119 0.195-0.195l0.002-0.003c0.038-0.062 0.060-0.136 0.060-0.216 0-0.001 0-0.002 0-0.003v0c0-0.002 0-0.005 0-0.007 0-0.117-0.051-0.221-0.132-0.293l-0-0c-0.084-0.076-0.197-0.123-0.32-0.123-0.007 0-0.013 0-0.020 0l0.001-0c-0.153 0-0.274 0.044-0.364 0.13s-0.135 0.203-0.135 0.352c0 0.061 0.014 0.123 0.043 0.189 0.030 0.065 0.082 0.144 0.155 0.237-0.14 0.101-0.235 0.188-0.282 0.261zM26.388 28.283c-0.081 0.066-0.185 0.106-0.299 0.107h-0c-0.005 0-0.010 0-0.015 0-0.082 0-0.156-0.031-0.212-0.083l0 0c-0.052-0.052-0.085-0.123-0.085-0.203 0-0.004 0-0.007 0-0.011l-0 0.001c0-0.101 0.052-0.192 0.156-0.271l0.041-0.029 0.414 0.489zM26.049 27.443c-0.090-0.11-0.134-0.202-0.134-0.275 0-0.063 0.019-0.116 0.055-0.157 0.034-0.039 0.084-0.063 0.139-0.063 0.003 0 0.005 0 0.008 0h-0c0.002-0 0.004-0 0.007-0 0.052 0 0.1 0.020 0.135 0.054l-0-0c0.037 0.035 0.056 0.077 0.056 0.126 0 0.002 0 0.005 0 0.007 0 0.071-0.031 0.134-0.080 0.177l-0 0-0.041 0.032-0.145 0.099zM29.135 28.473c0.13-0.114 0.205-0.272 0.224-0.474h-0.328c-0.018 0.135-0.059 0.232-0.124 0.29s-0.163 0.087-0.292 0.087c-0.141 0-0.249-0.054-0.323-0.162s-0.11-0.264-0.11-0.469v-0.167c0.002-0.203 0.041-0.355 0.117-0.46 0.077-0.105 0.188-0.157 0.331-0.157 0.123 0 0.217 0.030 0.28 0.091s0.104 0.158 0.12 0.294h0.328c-0.021-0.207-0.095-0.368-0.222-0.482s-0.296-0.171-0.506-0.171c-0.155 0-0.292 0.037-0.411 0.111-0.119 0.076-0.213 0.183-0.27 0.31l-0.002 0.005c-0.060 0.133-0.096 0.288-0.096 0.451 0 0.008 0 0.016 0 0.023l-0-0.001v0.177c0.003 0.174 0.035 0.328 0.098 0.46s0.151 0.234 0.266 0.306c0.116 0.071 0.249 0.107 0.4 0.107 0.216 0 0.389-0.056 0.52-0.169zM31.071 28.208c0.064-0.141 0.097-0.304 0.097-0.49v-0.105c0-0.006 0-0.013 0-0.020 0-0.169-0.036-0.329-0.102-0.473l0.003 0.007c-0.060-0.134-0.156-0.243-0.274-0.318l-0.003-0.002c-0.119-0.075-0.256-0.112-0.411-0.112s-0.291 0.037-0.411 0.113c-0.119 0.075-0.211 0.182-0.277 0.324-0.062 0.137-0.098 0.297-0.098 0.466 0 0.008 0 0.016 0 0.025l-0-0.001v0.107c0.001 0.181 0.034 0.341 0.099 0.48 0.066 0.139 0.159 0.246 0.279 0.322 0.121 0.075 0.258 0.112 0.411 0.112 0.156 0 0.293-0.037 0.412-0.112 0.119-0.076 0.212-0.183 0.276-0.323zM30.718 27.136c0.080 0.112 0.119 0.274 0.119 0.484v0.099c0 0.213-0.039 0.376-0.118 0.487-0.078 0.111-0.19 0.167-0.336 0.167-0.004 0-0.009 0-0.014 0-0.134 0-0.253-0.067-0.324-0.17l-0.001-0.001c-0.081-0.114-0.121-0.275-0.121-0.483v-0.109c0.002-0.204 0.043-0.362 0.122-0.473 0.071-0.102 0.188-0.168 0.321-0.168 0.005 0 0.010 0 0.014 0l-0.001-0c0.146 0 0.259 0.056 0.338 0.168z"></path>
</symbol>
<symbol id="icon-twitter" viewBox="0 0 32 32">
<path d="M32 6.078c-1.1 0.493-2.376 0.857-3.713 1.028l-0.068 0.007c1.36-0.817 2.382-2.078 2.873-3.579l0.013-0.046c-1.197 0.722-2.591 1.273-4.076 1.573l-0.084 0.014c-1.2-1.279-2.9-2.076-4.787-2.076-3.622 0-6.558 2.936-6.558 6.558 0 0.001 0 0.003 0 0.004v-0c0 0.52 0.043 1.021 0.152 1.496-5.454-0.266-10.28-2.88-13.522-6.861-0.564 0.949-0.899 2.092-0.902 3.313v0.001c0 2.272 1.171 4.286 2.914 5.451-1.091-0.030-2.107-0.325-2.994-0.823l0.033 0.017v0.072c0.003 3.165 2.236 5.807 5.213 6.44l0.043 0.008c-0.499 0.136-1.071 0.215-1.662 0.215-0.020 0-0.041-0-0.061-0l0.003 0c-0.419 0-0.843-0.024-1.242-0.112 0.85 2.598 3.261 4.509 6.13 4.57-2.215 1.746-5.045 2.8-8.122 2.8-0.004 0-0.008 0-0.013 0h0.001c-0.018 0-0.040 0-0.062 0-0.531 0-1.055-0.034-1.569-0.099l0.061 0.006c2.826 1.846 6.287 2.944 10.004 2.944 0.021 0 0.042-0 0.063-0h-0.003c12.072 0 18.672-10 18.672-18.669 0-0.288-0.010-0.57-0.024-0.848 1.299-0.936 2.39-2.064 3.258-3.355l0.030-0.047z"></path>
</symbol>
<symbol id="icon-linkedin" viewBox="0 0 32 32">
<path d="M31.992 32h0.008v-11.738c0-5.741-1.237-10.163-7.947-10.163-3.227 0-5.392 1.77-6.277 3.45h-0.093v-2.914h-6.365v21.363h6.627v-10.578c0-2.786 0.528-5.48 3.978-5.48 3.398 0 3.448 3.179 3.448 5.658v10.402h6.621zM0.528 10.635h6.635v21.365h-6.635v-21.365zM3.843 0c-2.123 0-3.843 1.721-3.843 3.843v0c0 2.12 1.722 3.878 3.843 3.878 2.12 0 3.842-1.757 3.842-3.878s-1.72-3.841-3.841-3.843h-0z"></path>
</symbol>
<symbol id="icon-instagram" viewBox="0 0 32 32">
<path d="M31.968 9.408c-0.074-1.701-0.349-2.869-0.742-3.882-0.424-1.111-1.054-2.059-1.85-2.837l-0.001-0.001c-0.78-0.792-1.724-1.419-2.778-1.827l-0.054-0.018c-1.019-0.394-2.181-0.667-3.882-0.742-1.712-0.082-2.256-0.101-6.602-0.101-4.344 0-4.888 0.019-6.595 0.094-1.699 0.074-2.869 0.349-3.88 0.742-1.112 0.424-2.060 1.054-2.839 1.85l-0.001 0.001c-0.791 0.78-1.418 1.724-1.825 2.778l-0.018 0.054c-0.395 1.019-0.669 2.181-0.744 3.882-0.082 1.712-0.101 2.256-0.101 6.602 0 4.344 0.019 4.888 0.094 6.595 0.075 1.701 0.35 2.869 0.744 3.882 0.426 1.11 1.055 2.057 1.849 2.837l0.001 0.001c0.8 0.813 1.77 1.443 2.832 1.843 1.019 0.395 2.182 0.67 3.882 0.744 1.707 0.075 2.251 0.094 6.595 0.094 4.346 0 4.89-0.019 6.595-0.094 1.701-0.074 2.869-0.349 3.882-0.742 2.157-0.85 3.833-2.526 4.664-4.628l0.019-0.055c0.394-1.019 0.669-2.182 0.744-3.882 0.075-1.707 0.093-2.251 0.093-6.595s-0.006-4.888-0.080-6.595zM29.088 22.474c-0.070 1.563-0.333 2.406-0.55 2.97-0.552 1.399-1.64 2.486-3.004 3.024l-0.036 0.012c-0.56 0.219-1.411 0.482-2.968 0.55-1.688 0.075-2.194 0.094-6.464 0.094-4.269 0-4.782-0.019-6.464-0.094-1.563-0.069-2.406-0.331-2.97-0.55-0.721-0.269-1.334-0.676-1.836-1.192l-0.001-0.001c-0.517-0.503-0.924-1.117-1.184-1.803l-0.011-0.034c-0.218-0.563-0.48-1.413-0.549-2.97-0.075-1.688-0.094-2.195-0.094-6.464 0-4.27 0.019-4.784 0.094-6.464 0.069-1.563 0.331-2.406 0.549-2.97 0.269-0.722 0.678-1.337 1.198-1.837l0.002-0.002c0.504-0.517 1.119-0.923 1.806-1.182l0.034-0.011c0.56-0.219 1.411-0.48 2.968-0.55 1.688-0.074 2.195-0.093 6.464-0.093 4.275 0 4.782 0.019 6.464 0.093 1.563 0.069 2.406 0.331 2.97 0.55 0.693 0.256 1.325 0.662 1.837 1.194 0.531 0.52 0.938 1.144 1.195 1.84 0.218 0.56 0.48 1.411 0.549 2.968 0.075 1.688 0.094 2.194 0.094 6.464 0 4.269-0.019 4.768-0.094 6.458z"></path>
<path d="M16.059 7.782c-4.539 0.002-8.218 3.682-8.219 8.221v0c0.091 4.471 3.737 8.060 8.221 8.060s8.13-3.589 8.221-8.052l0-0.009c-0.001-4.54-3.681-8.22-8.221-8.221h-0zM16.059 21.334c-2.945-0-5.332-2.388-5.332-5.333s2.388-5.333 5.333-5.333c0 0 0.001 0 0.001 0h-0c2.946 0 5.334 2.388 5.334 5.334s-2.388 5.334-5.334 5.334v0zM26.525 7.458c0 1.060-0.86 1.92-1.92 1.92s-1.92-0.86-1.92-1.92v0c0-1.060 0.86-1.92 1.92-1.92s1.92 0.86 1.92 1.92v0z"></path>
</symbol>
<symbol id="icon-facebook" viewBox="0 0 32 32">
<path d="M21.328 5.312h2.923v-5.088c-1.232-0.143-2.66-0.224-4.108-0.224-0.052 0-0.104 0-0.156 0l0.008-0c-4.213 0-7.099 2.65-7.099 7.52v4.48h-4.646v5.688h4.646v14.312h5.699v-14.31h4.459l0.707-5.688h-5.168v-3.922c0-1.643 0.443-2.768 2.734-2.768z"></path>
</symbol>
<symbol id="icon-diagram" viewBox="0 0 32 32">
<path d="M14.926 14.965h1.066v4.798h-1.066v-4.798zM19.19 17.097h1.066v2.665h-1.066v-2.665zM10.661 18.696h1.066v1.066h-1.066v-1.066zM7.463 18.163h1.066v1.599h-1.066v-1.599z"></path>
<path d="M1.599 28.291h25.586c0 0 0 0 0 0 0.883 0 1.599-0.716 1.599-1.599v0-2.132c0-0.883-0.716-1.599-1.599-1.599v0h-0.533v-13.294l3.028-2.868c0.207 0.104 0.452 0.166 0.711 0.166 0.888 0 1.608-0.72 1.608-1.608s-0.72-1.608-1.608-1.608c-0.888 0-1.608 0.72-1.608 1.608 0 0.247 0.056 0.481 0.155 0.69l-0.004-0.010-2.281 2.162v-1.23c0-0.883-0.716-1.599-1.599-1.599v0h-21.323c-0.883 0-1.599 0.716-1.599 1.599v0 15.992h-0.533c-0.883 0-1.599 0.716-1.599 1.599v0 2.132c0 0.883 0.716 1.599 1.599 1.599v0zM30.384 4.837c0.294 0 0.533 0.239 0.533 0.533s-0.239 0.533-0.533 0.533v0c-0.294 0-0.533-0.239-0.533-0.533s0.239-0.533 0.533-0.533v0zM3.198 6.969c0-0.294 0.239-0.533 0.533-0.533h21.323c0.294 0 0.533 0.239 0.533 0.533v2.239l-1.066 1.013v-2.185c0-0.295-0.239-0.534-0.534-0.534h-19.189c-0.294 0-0.534 0.239-0.534 0.533v13.327c0 0.294 0.239 0.533 0.534 0.533h19.189c0.295 0 0.534-0.239 0.534-0.533v-9.675l1.066-1.010v12.283h-22.389v-15.991zM7.996 13.899c-0.001 0-0.003 0-0.005 0-0.883 0-1.599 0.716-1.599 1.599s0.716 1.599 1.599 1.599c0.432 0 0.824-0.172 1.112-0.45l-0 0 1.853 0.93c0.215 0.107 0.476 0.057 0.636-0.122l3.939-4.432 3.872 2.902c0.208 0.155 0.498 0.139 0.686-0.039l3.365-3.188v8.131h-18.123v-12.261h18.123v2.661l-3.771 3.572-3.904-2.927c-0.088-0.067-0.2-0.107-0.32-0.107-0.158 0-0.3 0.069-0.398 0.178l-0 0.001-3.993 4.493-1.493-0.746c0.011-0.064 0.017-0.128 0.020-0.193 0-0.883-0.716-1.599-1.599-1.599v0zM8.529 15.498c0 0.294-0.239 0.533-0.533 0.533s-0.533-0.239-0.533-0.533v0c0-0.294 0.239-0.533 0.533-0.533s0.533 0.239 0.533 0.533v0zM11.727 24.026h5.33v0.533c0 0.294-0.238 0.533-0.533 0.533h-4.265c-0.294 0-0.533-0.239-0.533-0.533v0-0.533zM1.067 24.56c0-0.294 0.238-0.533 0.533-0.533h9.062v0.533c0 0.883 0.716 1.599 1.599 1.599v0h4.265c0.883 0 1.599-0.716 1.599-1.599v0-0.533h9.062c0.294 0 0.533 0.239 0.533 0.533v2.132c0 0.294-0.239 0.533-0.533 0.533h-25.586c-0 0-0 0-0 0-0.294 0-0.533-0.239-0.533-0.533 0 0 0 0 0 0v0-2.132z"></path>
</symbol>
<symbol id="icon-clock" viewBox="0 0 32 32">
<path d="M31.296 15.301c-0.001-8.452-6.855-15.303-15.308-15.301s-15.303 6.855-15.301 15.308c0.002 6.788 4.422 12.543 10.541 14.545l0.108 0.031c0.061 0.019 0.123 0.029 0.187 0.029 0.12 0 0.238-0.032 0.342-0.094 0.135-0.080 0.236-0.207 0.283-0.357l3.865-12.25c1.054-0.004 1.906-0.859 1.906-1.913 0-1.056-0.856-1.913-1.913-1.913-0.303 0-0.59 0.071-0.845 0.196l0.011-0.005-5.106-5.107c-0.114-0.11-0.271-0.179-0.443-0.179-0.352 0-0.638 0.286-0.638 0.638 0 0.172 0.068 0.328 0.179 0.443l-0-0 5.103 5.109c-0.121 0.241-0.191 0.525-0.191 0.826 0 0.602 0.283 1.137 0.723 1.48l0.004 0.003-3.682 11.673c-7.278-2.681-11.004-10.754-8.324-18.032s10.754-11.004 18.032-8.323c7.278 2.681 11.004 10.754 8.323 18.032-1.345 3.581-4.003 6.406-7.374 7.938l-0.088 0.036-0.398-1.874c-0.063-0.291-0.318-0.506-0.624-0.506-0.164 0-0.313 0.062-0.426 0.163l0.001-0.001-3.837 3.426c-0.132 0.117-0.214 0.287-0.214 0.477 0 0.283 0.185 0.524 0.441 0.606l0.005 0.001 4.899 1.563c0.058 0.020 0.126 0.031 0.196 0.031 0.352 0 0.637-0.285 0.637-0.637 0-0.047-0.005-0.093-0.015-0.138l0.001 0.004-0.391-1.839c5.528-2.374 9.329-7.772 9.329-14.057 0-0.011 0-0.023-0-0.034v0.002zM15.992 14.664c0.352 0 0.638 0.286 0.638 0.638s-0.285 0.638-0.638 0.638v0c-0.352 0-0.638-0.286-0.638-0.638s0.286-0.638 0.638-0.638v0zM18.092 29.528l2.184-1.948 0.603 2.84-2.787-0.892z"></path>
<path d="M15.354 3.185v1.275c0 0.352 0.286 0.638 0.638 0.638s0.638-0.285 0.638-0.638v0-1.275c0-0.352-0.285-0.638-0.638-0.638s-0.638 0.285-0.638 0.638v0zM3.876 14.664c-0.352 0-0.638 0.286-0.638 0.638s0.285 0.638 0.638 0.638h1.275c0.352 0 0.638-0.286 0.638-0.638s-0.285-0.638-0.638-0.638h-1.275zM28.108 15.939c0.352 0 0.638-0.286 0.638-0.638s-0.285-0.638-0.638-0.638h-1.275c-0.352 0-0.638 0.286-0.638 0.638s0.285 0.638 0.638 0.638h1.275z"></path>
</symbol>
<symbol id="icon-astronaut" viewBox="0 0 32 32">
<path d="M31.974 4.524c-0.064-0.191-0.227-0.332-0.427-0.362l-0.003-0-1.911-0.278-0.855-1.731c-0.179-0.365-0.777-0.365-0.956 0l-0.855 1.731-1.911 0.278c-0.26 0.039-0.457 0.26-0.457 0.528 0 0.15 0.062 0.285 0.161 0.382l1.383 1.348-0.326 1.903c-0.034 0.2 0.048 0.402 0.212 0.522 0.166 0.12 0.383 0.135 0.562 0.040l1.709-0.899 1.709 0.899c0.072 0.038 0.157 0.061 0.247 0.061 0.295 0 0.534-0.239 0.534-0.534 0-0.031-0.003-0.062-0.008-0.092l0 0.003-0.326-1.903 1.383-1.348c0.099-0.097 0.161-0.233 0.161-0.382 0-0.059-0.009-0.115-0.027-0.168l0.001 0.004zM29.511 5.851c-0.126 0.122-0.183 0.299-0.153 0.472l0.191 1.114-1-0.526c-0.072-0.039-0.158-0.062-0.249-0.062s-0.177 0.023-0.252 0.063l0.003-0.001-1 0.526 0.191-1.114c0.005-0.027 0.008-0.059 0.008-0.091 0-0.149-0.061-0.285-0.16-0.381l-0-0-0.811-0.79 1.119-0.162c0.174-0.025 0.324-0.134 0.402-0.292l0.5-1.013 0.5 1.013c0.078 0.158 0.228 0.267 0.402 0.292l1.119 0.162-0.809 0.79zM26.134 20.522h-1.067v1.067h1.067v-1.067zM26.134 22.656h-1.067v1.066h1.067v-1.066zM27.2 21.589h-1.067v1.067h1.067v-1.067zM25.067 21.589h-1.067v1.067h1.067v-1.067zM22.4 26.389h-1.067v1.067h1.067v-1.067zM22.4 28.523h-1.067v1.067h1.067v-1.067zM23.467 27.456h-1.067v1.067h1.067v-1.067zM21.334 27.456h-1.067v1.067h1.067v-1.067zM16 24.256h-1.066v1.067h1.066v-1.067zM16 26.389h-1.066v1.067h1.066v-1.067zM17.067 25.322h-1.067v1.067h1.067v-1.067zM14.934 25.322h-1.067v1.067h1.067v-1.067zM5.867 6.122h-1.066v1.066h1.066v-1.066zM5.867 8.256h-1.066v1.066h1.066v-1.066zM6.933 7.189h-1.067v1.067h1.066v-1.067zM4.8 7.189h-1.067v1.067h1.067v-1.067z"></path>
<path d="M24.715 14.16c-0.28-0.376-0.699-0.636-1.179-0.703l-0.009-0.001c-0.076-0.012-0.164-0.018-0.254-0.018-0.411 0-0.789 0.139-1.090 0.373l0.004-0.003-1.253 0.96-1.898 1.417-1.358-0.541c2.421-1.086 4.113-3.508 4.113-6.32 0-3.823-3.122-6.934-6.961-6.934s-6.961 3.11-6.961 6.934c0 1.386 0.415 2.674 1.12 3.759l-2.768-0.024c-0.009 0-0.016 0.005-0.023 0.005-0.057 0.003-0.11 0.014-0.159 0.033l0.004-0.001c-0.013 0.005-0.026 0.007-0.038 0.013-0.006 0.003-0.013 0.003-0.019 0.006l-3.233 1.596c-0 0-0.001 0-0.001 0.001l-1.893 0.91c-0.024 0.011-0.045 0.023-0.065 0.036l0.001-0.001c-0.482 0.324-0.795 0.867-0.795 1.483 0 0.297 0.073 0.577 0.201 0.823l-0.005-0.010c0.22 0.424 0.592 0.742 1.043 0.885l0.013 0.003c0.161 0.053 0.345 0.083 0.537 0.083 0.308 0 0.598-0.078 0.851-0.216l-0.009 0.005 1.388-0.738 2.264-1.169 1.357-0.008-5.442 5.415c0 0.001-0.001 0.001-0.001 0.001l-1.339 1.333c-0.303 0.299-0.491 0.714-0.491 1.173 0 0.002 0 0.003 0 0.005v-0c0.002 0.919 0.748 1.664 1.667 1.664 0.001 0 0.002 0 0.002 0h-0c0.428 0 0.854-0.162 1.18-0.485l1.314-1.309 1.741-1.3 0.901 0.897-3.102 3.088c-0.303 0.299-0.491 0.714-0.491 1.173 0 0.001 0 0.003 0 0.004v-0c0 0.445 0.174 0.864 0.49 1.179 0.302 0.3 0.717 0.485 1.176 0.485 0.001 0 0.002 0 0.003 0h-0c0.427 0 0.855-0.162 1.18-0.485l4.488-4.472c0.007-0.006 0.016-0.009 0.022-0.016l5.166-5.658 3.471 0.494c0.025 0.004 0.050 0.006 0.075 0.006 0.064 0 0.127-0.016 0.187-0.038 0.017-0.006 0.032-0.015 0.049-0.023 0.019-0.010 0.039-0.015 0.058-0.027l3.213-2.133c0.012-0.008 0.018-0.021 0.029-0.030 0.013-0.010 0.029-0.014 0.041-0.026l1.271-1.191c0.348-0.326 0.564-0.787 0.564-1.3 0-0.4-0.132-0.769-0.355-1.066l0.003 0.005zM2.13 17.77c-0.098 0.054-0.215 0.086-0.34 0.086-0.078 0-0.153-0.013-0.224-0.036l0.005 0.001c-0.294-0.093-0.504-0.364-0.504-0.683 0-0.235 0.114-0.444 0.289-0.575l0.002-0.001 1.314-0.632 0.316 0.924 0.133 0.389-0.992 0.527zM5.627 15.942l-1.548 0.8-0.255-0.746-0.184-0.537 2.027-1.001-0.040 1.484zM20.727 9.322c0 0.918-0.219 1.785-0.599 2.56l-4.181-1.899c-0.044-0.575-0.342-1.072-0.782-1.384l-0.006-0.004 1.464-4.861c2.377 0.757 4.104 2.975 4.104 5.588zM8.938 9.322c0-3.235 2.644-5.867 5.894-5.867 0.253 0 0.5 0.022 0.745 0.053l-1.432 4.753c-0.019 0-0.037-0.006-0.057-0.006-0 0-0.001 0-0.001 0-1.032 0-1.869 0.835-1.872 1.867v0c0.003 1.031 0.84 1.867 1.872 1.867 0 0 0 0 0.001 0h-0c0.695 0 1.295-0.383 1.618-0.944l3.863 1.755c-1.075 1.447-2.795 2.39-4.737 2.39-3.25 0-5.894-2.632-5.894-5.867zM14.895 10.122c0 0.441-0.362 0.8-0.806 0.8-0 0-0.001 0-0.001 0-0.443 0-0.802-0.358-0.804-0.8v-0c0-0.441 0.361-0.8 0.806-0.8s0.806 0.359 0.806 0.8zM2.464 25.146c-0.11 0.109-0.261 0.176-0.428 0.176s-0.317-0.067-0.427-0.175l0 0c-0.109-0.108-0.176-0.257-0.176-0.422s0.067-0.314 0.176-0.422l0-0 0.962-0.959 0.852 0.848-0.959 0.954zM5.678 28.88c-0.11 0.109-0.261 0.176-0.428 0.176s-0.317-0.067-0.427-0.175l0 0c-0.109-0.108-0.176-0.257-0.176-0.422s0.067-0.314 0.176-0.422l0-0 0.963-0.959 0.852 0.848-0.96 0.955zM9.16 25.411l-0.001 0.001-1.765 1.76-0.852-0.848 1.765-1.757c0.040-0.040 0.065-0.088 0.090-0.136 0.007-0.014 0.020-0.026 0.026-0.040 0.016-0.041 0.019-0.085 0.026-0.128 0.003-0.025 0.014-0.048 0.014-0.073 0-0.035-0.013-0.070-0.020-0.105-0.006-0.032-0.006-0.064-0.019-0.096-0.025-0.053-0.055-0.098-0.092-0.138l0 0c-0.010-0.012-0.014-0.026-0.025-0.038h-0.001s0-0.001-0.001-0.002l-1.607-1.6c-0.017-0.017-0.039-0.024-0.058-0.038-0.025-0.021-0.054-0.040-0.084-0.056l-0.003-0.001c-0.026-0.012-0.058-0.023-0.090-0.031l-0.003-0.001c-0.030-0.009-0.065-0.017-0.101-0.020l-0.002-0c-0.007-0-0.015-0-0.023-0-0.026 0-0.051 0.002-0.075 0.005l0.003-0c-0.036 0.005-0.069 0.009-0.104 0.021s-0.064 0.027-0.094 0.045c-0.020 0.011-0.043 0.015-0.061 0.029l-1.774 1.324-0.901-0.897 2.399-2.386 4.36 4.289-0.928 0.919zM15.979 18.394c-0.016-0.002-0.030 0.004-0.046 0.003-0.008-0-0.017-0.001-0.027-0.001-0.031 0-0.062 0.003-0.092 0.008l0.003-0c-0.070 0.011-0.132 0.035-0.187 0.070l0.002-0.001c-0.030 0.018-0.057 0.037-0.083 0.061-0.013 0.011-0.028 0.016-0.040 0.029l-4.698 5.146-4.328-4.256 2.833-2.818c0.096-0.097 0.156-0.23 0.156-0.377 0-0.295-0.239-0.534-0.534-0.534-0.001 0-0.001 0-0.002 0h0l-2.219 0.013 0.028-1.607 3.104 0.027c1.264 1.297 3.027 2.101 4.978 2.101 0.001 0 0.002 0 0.003 0h-0c0.438 0 0.864-0.046 1.28-0.122 0.040 0.032 0.080 0.064 0.129 0.085l2.41 0.96 0.152 0.758 0.178 0.886-3.003-0.427zM20.020 18.572l-0.313-1.558 1.446-1.080 0.946 1.257-2.080 1.381zM23.773 15.741l-0.837 0.785-0.931-1.236 0.831-0.637c0.155-0.119 0.351-0.168 0.543-0.143 0.193 0.027 0.364 0.128 0.48 0.284 0.088 0.117 0.141 0.265 0.141 0.426 0 0.206-0.087 0.391-0.226 0.521l-0 0z"></path>
<path d="M13.602 18.544l-2.143-2.134c-0.096-0.096-0.229-0.155-0.376-0.155s-0.28 0.059-0.376 0.155l-2.143 2.133c-0.097 0.097-0.156 0.23-0.156 0.378s0.060 0.281 0.156 0.378l-0-0 2.142 2.134c0.096 0.096 0.229 0.156 0.376 0.156s0.28-0.059 0.376-0.156v0l2.143-2.134c0.097-0.097 0.157-0.23 0.157-0.378s-0.060-0.281-0.157-0.378l-0-0zM11.083 20.303l-1.387-1.381 1.386-1.381 1.387 1.381-1.387 1.381zM17.164 5.071l-0.258 1.036c0.071 0.018 1.738 0.452 1.738 2.149h1.067c0-2.017-1.666-2.965-2.547-3.184zM19.711 9.322h-1.067v1.066h1.067v-1.066z"></path>
</symbol>
<symbol id="icon-antenna" viewBox="0 0 32 32">
<path d="M30.773 22.098l-8.443-8.505 0.937-4.616c0.225 0.090 0.485 0.144 0.758 0.146h0.007c0.008 0 0.017 0 0.026 0 1.192 0 2.159-0.967 2.159-2.159s-0.967-2.159-2.159-2.159c-1.192 0-2.159 0.967-2.159 2.159 0 0.259 0.046 0.508 0.13 0.739l-0.005-0.015-4.96 0.606-8.091-8.133c-0.096-0.098-0.229-0.159-0.376-0.16h-0c-0.14 0.001-0.274 0.057-0.373 0.155l-1.512 1.504c-0.096 0.097-0.156 0.23-0.156 0.377s0.060 0.281 0.156 0.377v0l0.814 0.825c-1.143 2.062-1.816 4.522-1.816 7.139 0 4.106 1.656 7.824 4.336 10.525l-0.001-0.001c0.043 0.041 0.092 0.074 0.146 0.097-0.032 0.164-0.051 0.353-0.052 0.546v6.188h-6.4c-1.472 0.001-2.666 1.194-2.667 2.666v1.067c0 0.295 0.239 0.534 0.534 0.534h24.534c0.294 0 0.533-0.239 0.533-0.534v-1.067c-0.002-1.472-1.195-2.665-2.666-2.666h-6.4v-2.742c1.003 0.21 2.024 0.317 3.049 0.32 2.58-0.003 5.005-0.663 7.117-1.822l-0.077 0.039 0.818 0.823c0.099 0.101 0.235 0.159 0.376 0.16 0.14-0.001 0.274-0.057 0.373-0.155l1.512-1.504c0.096-0.097 0.156-0.23 0.156-0.377s-0.060-0.281-0.156-0.377v0zM23.28 6.233c0.193-0.192 0.459-0.31 0.752-0.31 0.589 0 1.067 0.478 1.067 1.066s-0.477 1.066-1.067 1.066c-0 0-0 0-0 0h-0.004c-0.587-0.003-1.061-0.479-1.061-1.066 0-0.295 0.12-0.563 0.314-0.756l0-0h-0.002zM22.024 9.737l-0.598 2.946-1.175-1.183 1.774-1.763zM21.419 8.835l-1.92 1.909-1.486-1.493 3.406-0.416zM24.004 28.8c0.884 0 1.6 0.716 1.6 1.6v0 0.534h-23.466v-0.534c0-0.884 0.716-1.6 1.6-1.6v0h20.267zM16.538 26.666v1.067h-5.334v-1.067h5.334zM11.204 25.6v-4.053c0-1.294 1.196-2.346 2.667-2.346s2.667 1.053 2.667 2.346v4.053h-5.334zM17.604 23.904v-2.357c0-1.882-1.675-3.413-3.733-3.413-0.017-0-0.038-0-0.058-0-1.353 0-2.54 0.707-3.213 1.771l-0.009 0.016c-2.36-2.482-3.812-5.846-3.812-9.55 0-2.314 0.567-4.496 1.569-6.414l-0.036 0.077 18.602 18.709c-1.823 0.947-3.979 1.502-6.266 1.502-1.079 0-2.128-0.124-3.136-0.357l0.093 0.018zM28.893 23.22l-21.057-21.181 0.754-0.752 7.935 7.98c0.004 0 0.006 0.007 0.010 0.010l13.114 13.191-0.757 0.752z"></path>
<path d="M13.876 20.267h-0.005c-0.001 0-0.002 0-0.002 0-0.884 0-1.6 0.716-1.6 1.6s0.715 1.599 1.597 1.6h0.005c0.001 0 0.001 0 0.002 0 0.884 0 1.6-0.716 1.6-1.6s-0.715-1.599-1.598-1.6h-0zM14.249 22.245c-0.096 0.096-0.229 0.155-0.376 0.155-0.295 0-0.534-0.239-0.534-0.534s0.238-0.533 0.532-0.533h0c0.293 0.001 0.531 0.239 0.531 0.533 0 0.148-0.060 0.282-0.157 0.378l-0 0h0.005z"></path>
</symbol>
</defs>
</svg>
