<svg aria-hidden="true" style="position: absolute; width: 0; height: 0; overflow: hidden;" version="1.1" xmlns="http://www.w3.org/2000/svg" xmlns:xlink="http://www.w3.org/1999/xlink">
<defs>
<symbol id="icon-mark-icon" viewBox="0 0 34 32">
<path fill="#d6d6d6" style="fill: var(--color1, #d6d6d6)" d="M34.415 5.929c-5.096 2.5-7.644 5.437-7.644 8.813 2.172 0.25 3.968 1.135 5.388 2.656s2.13 3.281 2.13 5.281c0 2.125-0.689 3.917-2.068 5.375s-3.112 2.188-5.2 2.188c-2.339 0-4.365-0.948-6.078-2.844s-2.569-4.198-2.569-6.906c0-8.125 4.553-14.479 13.659-19.063l2.381 4.5zM16.066 5.929c-5.138 2.5-7.707 5.437-7.707 8.813 2.214 0.25 4.031 1.135 5.451 2.656s2.13 3.281 2.13 5.281c0 2.125-0.7 3.917-2.099 5.375s-3.143 2.188-5.232 2.188c-2.339 0-4.354-0.948-6.046-2.844s-2.538-4.198-2.538-6.906c0-8.125 4.532-14.479 13.596-19.063l2.444 4.5z"></path>
</symbol>
<symbol id="icon-diagram-icon" viewBox="0 0 37 32">
<path fill="#fd0b7d" style="fill: var(--color2, #fd0b7d)" d="M0 32v-32h9.546v32h-9.546zM13.126 32v-26.074h9.546v26.074h-9.546zM26.251 32v-21.333h9.546v21.333h-9.546z"></path>
</symbol>
<symbol id="icon-tool-icon" viewBox="0 0 68 32">
<path fill="#fd0b7d" style="fill: var(--color2, #fd0b7d)" d="M18.58 17.658l9.819-4.895-24.339-12.134c-5.413 2.698-5.413 7.083 0 9.782l14.52 7.248zM42.121 14.518c5.291 1.237 12.768 0.363 18.285-2.387 6.644-3.312 7.911-8.043 2.828-10.577-5.1-2.534-14.607-1.903-21.234 1.41-5.517 2.75-7.251 6.478-4.788 9.116-7.72 3.84-33.881 16.882-33.881 16.882l4.909 2.448 23.871-11.901 23.871 11.901 4.909-2.448-23.871-11.901 5.1-2.543z"></path>
</symbol>
<symbol id="icon-eating-icon" viewBox="0 0 73 32">
<path fill="#fd0b7d" style="fill: var(--color2, #fd0b7d)" d="M72.035 17.297c0 1.592-2.481 2.883-5.541 2.883h-60.952c-3.060 0-5.541-1.291-5.541-2.883s2.481-2.883 5.541-2.883h60.952c3.060 0 5.541 1.291 5.541 2.883zM13.853 23.063h-8.312c0 4.777 7.442 8.649 16.623 8.649h27.706c9.181 0 16.623-3.872 16.623-8.649h-52.641zM11.082 11.532h-5.541v-5.766c0-3.184 4.962-5.766 11.082-5.766h38.788c6.121 0 11.082 2.581 11.082 5.766v5.766h-55.411zM55.411 7.207c0 0.796 1.241 1.441 2.771 1.441s2.771-0.645 2.771-1.441-1.241-1.441-2.771-1.441c-1.53 0-2.771 0.645-2.771 1.441zM44.329 4.324c0 0.796 1.241 1.441 2.771 1.441s2.771-0.645 2.771-1.441-1.241-1.441-2.771-1.441c-1.53 0-2.771 0.645-2.771 1.441zM33.247 7.207c0 0.796 1.241 1.441 2.771 1.441s2.771-0.645 2.771-1.441-1.241-1.441-2.771-1.441c-1.53 0-2.771 0.645-2.771 1.441zM22.164 4.324c0 0.796 1.241 1.441 2.771 1.441s2.771-0.645 2.771-1.441-1.241-1.441-2.771-1.441c-1.53 0-2.771 0.645-2.771 1.441zM11.082 7.207c0 0.796 1.241 1.441 2.771 1.441s2.771-0.645 2.771-1.441c0-0.796-1.241-1.441-2.771-1.441s-2.771 0.645-2.771 1.441z"></path>
</symbol>
<symbol id="icon-line-icon" viewBox="0 0 7 32">
<path fill="#fff" style="fill: var(--color3, #fff)" d="M4 28h3.2l-3.6 4-3.6-4h3.2v-28h0.8v28z"></path>
</symbol>
<symbol id="icon-antenna-1" viewBox="0 0 32 32">
<path fill="#212121" style="fill: var(--color1, #212121)" d="M30.773 22.098l-8.443-8.505 0.937-4.615c0.242 0.094 0.499 0.144 0.758 0.146h0.006c1.192 0.014 2.17-0.941 2.184-2.133s-0.941-2.17-2.133-2.184c-1.192-0.014-2.17 0.941-2.184 2.133-0.003 0.255 0.039 0.509 0.125 0.749l-4.96 0.605-8.091-8.133c-0.099-0.101-0.235-0.159-0.377-0.16-0.14 0.001-0.274 0.056-0.373 0.155l-1.513 1.504c-0.208 0.208-0.208 0.546 0 0.754l0.814 0.826c-3.153 5.798-2.129 12.978 2.519 17.663 0.043 0.041 0.092 0.074 0.146 0.098-0.034 0.18-0.051 0.364-0.052 0.547v6.187h-6.4c-1.472 0.002-2.665 1.195-2.667 2.667v1.067c0 0.295 0.239 0.533 0.533 0.533h24.533c0.295 0 0.533-0.239 0.533-0.533v-1.067c-0.002-1.472-1.195-2.665-2.667-2.667h-6.4v-2.742c1.003 0.21 2.024 0.317 3.049 0.32 2.458-0.003 4.877-0.615 7.040-1.783l0.818 0.823c0.099 0.101 0.235 0.159 0.377 0.16 0.14-0.001 0.274-0.056 0.373-0.155l1.513-1.504c0.208-0.208 0.208-0.546 0-0.754zM23.28 6.233c0.418-0.415 1.093-0.414 1.508 0.004s0.414 1.093-0.004 1.508c-0.2 0.199-0.47 0.31-0.752 0.31h-0.003c-0.589-0.003-1.064-0.483-1.061-1.072 0.002-0.282 0.115-0.552 0.314-0.751h-0.002zM22.024 9.738l-0.598 2.946-1.175-1.182 1.774-1.763zM21.419 8.836l-1.92 1.909-1.485-1.493 3.405-0.415zM24.004 28.8c0.884 0 1.6 0.716 1.6 1.6v0.533h-23.467v-0.533c0-0.884 0.716-1.6 1.6-1.6h20.267zM16.537 26.667v1.067h-5.333v-1.067h5.333zM11.204 25.6v-4.053c0-1.294 1.196-2.347 2.667-2.347s2.667 1.053 2.667 2.347v4.053h-5.333zM17.604 23.904v-2.357c0-1.882-1.675-3.413-3.733-3.413-1.331-0.020-2.576 0.657-3.281 1.786-4.058-4.274-4.971-10.645-2.279-15.887l18.602 18.708c-2.872 1.461-6.165 1.873-9.309 1.163zM28.893 23.22l-21.057-21.181 0.755-0.752 7.935 7.98c0.004 0 0.006 0.007 0.010 0.010l13.115 13.191-0.757 0.752z"></path>
<path fill="#2196f3" style="fill: var(--color2, #2196f3)" d="M13.876 20.267h-0.005c-0.884-0.001-1.601 0.714-1.602 1.598s0.714 1.601 1.598 1.602h0.005c0.884 0.001 1.601-0.714 1.602-1.598s-0.714-1.601-1.598-1.602zM14.249 22.245c-0.1 0.1-0.236 0.156-0.378 0.155-0.295-0.002-0.532-0.242-0.531-0.536 0.001-0.141 0.057-0.276 0.157-0.375s0.233-0.154 0.373-0.155c0.295 0.002 0.532 0.241 0.53 0.536-0.001 0.141-0.057 0.276-0.157 0.375h0.005z"></path>
</symbol>
<symbol id="icon-astronaut-1" viewBox="0 0 34 32">
<path fill="#2196f3" style="fill: var(--color2, #2196f3)" d="M31.975 4.279c-0.060-0.182-0.217-0.315-0.407-0.343l-1.807-0.263-0.809-1.638c-0.169-0.345-0.735-0.345-0.905 0l-0.809 1.638-1.807 0.263c-0.19 0.028-0.348 0.16-0.408 0.343-0.059 0.183-0.010 0.383 0.128 0.517l1.308 1.275-0.309 1.8c-0.032 0.189 0.045 0.38 0.2 0.493 0.157 0.114 0.362 0.128 0.532 0.038l1.616-0.85 1.616 0.85c0.074 0.039 0.155 0.058 0.235 0.058 0.104 0 0.209-0.032 0.297-0.096 0.155-0.113 0.233-0.304 0.2-0.493l-0.309-1.8 1.308-1.275c0.137-0.134 0.186-0.335 0.127-0.517zM29.646 5.535c-0.119 0.115-0.173 0.283-0.145 0.447l0.181 1.054-0.946-0.497c-0.074-0.039-0.154-0.058-0.235-0.058s-0.161 0.019-0.235 0.058l-0.947 0.497 0.181-1.054c0.028-0.163-0.026-0.33-0.145-0.447l-0.766-0.747 1.058-0.154c0.165-0.024 0.306-0.127 0.38-0.276l0.473-0.959 0.473 0.959c0.074 0.149 0.215 0.252 0.38 0.276l1.058 0.154-0.765 0.747z"></path>
<path fill="#2196f3" style="fill: var(--color2, #2196f3)" d="M26.451 19.413h-1.009v1.009h1.009v-1.009z"></path>
<path fill="#2196f3" style="fill: var(--color2, #2196f3)" d="M26.451 21.431h-1.009v1.009h1.009v-1.009z"></path>
<path fill="#2196f3" style="fill: var(--color2, #2196f3)" d="M27.46 20.422h-1.009v1.009h1.009v-1.009z"></path>
<path fill="#2196f3" style="fill: var(--color2, #2196f3)" d="M25.442 20.422h-1.009v1.009h1.009v-1.009z"></path>
<path fill="#2196f3" style="fill: var(--color2, #2196f3)" d="M22.919 24.963h-1.009v1.009h1.009v-1.009z"></path>
<path fill="#2196f3" style="fill: var(--color2, #2196f3)" d="M22.919 26.981h-1.009v1.009h1.009v-1.009z"></path>
<path fill="#2196f3" style="fill: var(--color2, #2196f3)" d="M23.928 25.972h-1.009v1.009h1.009v-1.009z"></path>
<path fill="#2196f3" style="fill: var(--color2, #2196f3)" d="M21.91 25.972h-1.009v1.009h1.009v-1.009z"></path>
<path fill="#2196f3" style="fill: var(--color2, #2196f3)" d="M16.865 22.945h-1.009v1.009h1.009v-1.009z"></path>
<path fill="#2196f3" style="fill: var(--color2, #2196f3)" d="M16.865 24.963h-1.009v1.009h1.009v-1.009z"></path>
<path fill="#2196f3" style="fill: var(--color2, #2196f3)" d="M17.874 23.953h-1.009v1.009h1.009v-1.009z"></path>
<path fill="#2196f3" style="fill: var(--color2, #2196f3)" d="M15.856 23.953h-1.009v1.009h1.009v-1.009z"></path>
<path fill="#2196f3" style="fill: var(--color2, #2196f3)" d="M7.279 5.791h-1.009v1.009h1.009v-1.009z"></path>
<path fill="#2196f3" style="fill: var(--color2, #2196f3)" d="M7.279 7.809h-1.009v1.009h1.009v-1.009z"></path>
<path fill="#2196f3" style="fill: var(--color2, #2196f3)" d="M8.288 6.8h-1.009v1.009h1.009v-1.009z"></path>
<path fill="#2196f3" style="fill: var(--color2, #2196f3)" d="M6.27 6.8h-1.009v1.009h1.009v-1.009z"></path>
<path fill="#212121" style="fill: var(--color1, #212121)" d="M25.109 13.394c-0.272-0.367-0.671-0.603-1.124-0.666-0.455-0.065-0.904 0.055-1.267 0.333l-1.185 0.908-1.795 1.341-1.285-0.512c2.29-1.028 3.891-3.319 3.891-5.978 0-3.616-2.954-6.559-6.585-6.559s-6.585 2.942-6.585 6.559c0 1.311 0.392 2.53 1.059 3.555l-2.614-0.023c-0.002 0-0.003 0-0.005 0-0.008 0-0.015 0.004-0.022 0.005-0.050 0.002-0.099 0.012-0.147 0.029-0.012 0.005-0.025 0.007-0.036 0.013-0.006 0.003-0.012 0.003-0.018 0.006l-3.058 1.51c-0.001 0-0.001 0-0.001 0l-1.791 0.861c-0.020 0.009-0.040 0.020-0.060 0.033-0.714 0.475-0.957 1.409-0.566 2.171 0.208 0.406 0.563 0.704 0.999 0.841 0.168 0.052 0.34 0.078 0.51 0.078 0.274 0 0.545-0.067 0.794-0.2l1.313-0.698 2.142-1.106 1.284-0.008-5.148 5.123c-0 0.001-0.001 0.001-0.002 0.001l-1.266 1.261c-0.299 0.298-0.464 0.693-0.464 1.114s0.164 0.817 0.464 1.115c0.307 0.306 0.711 0.459 1.115 0.459s0.808-0.153 1.116-0.459l1.243-1.238 1.647-1.23 0.852 0.849-1.666 1.659c-0 0.001-0.001 0.001-0.002 0.001l-1.266 1.261c-0.299 0.298-0.464 0.693-0.464 1.114s0.165 0.817 0.464 1.115c0.307 0.306 0.712 0.459 1.116 0.459s0.809-0.153 1.117-0.459l3.293-3.279c0.001-0.001 0.001-0.001 0.001-0.002l0.955-0.946-0.004-0.004c0.006-0.006 0.015-0.008 0.021-0.015l4.887-5.352 3.283 0.467c0.024 0.004 0.047 0.005 0.071 0.005 0.061 0 0.12-0.015 0.177-0.036 0.017-0.006 0.031-0.014 0.047-0.022 0.018-0.009 0.037-0.014 0.055-0.026l3.040-2.018c0.011-0.008 0.017-0.020 0.028-0.028 0.012-0.010 0.027-0.014 0.038-0.024l1.203-1.127c0.626-0.586 0.712-1.547 0.201-2.234zM3.745 16.81c-0.164 0.088-0.35 0.105-0.528 0.049-0.177-0.055-0.32-0.176-0.404-0.339-0.152-0.297-0.064-0.658 0.203-0.853l1.243-0.598 0.425 1.242-0.938 0.499zM7.053 15.081l-1.465 0.757-0.415-1.214 1.917-0.946-0.037 1.404zM21.336 8.818c0 0.869-0.207 1.688-0.567 2.421l-3.955-1.797c-0.041-0.542-0.323-1.017-0.746-1.313l1.385-4.598c2.249 0.715 3.883 2.814 3.883 5.286zM10.185 8.818c0-3.060 2.501-5.55 5.576-5.55 0.239 0 0.473 0.020 0.705 0.049l-1.355 4.497c-0.018-0.001-0.035-0.006-0.054-0.006-0.977 0-1.771 0.792-1.771 1.766s0.795 1.766 1.771 1.766c0.657 0 1.224-0.363 1.531-0.894l3.654 1.66c-1.017 1.368-2.644 2.261-4.481 2.261-3.074 0-5.576-2.49-5.576-5.55zM15.819 9.575c0 0.417-0.342 0.757-0.762 0.757s-0.762-0.339-0.762-0.757c0-0.417 0.342-0.757 0.762-0.757s0.762 0.34 0.762 0.757zM4.061 23.787c-0.223 0.221-0.585 0.221-0.808 0.001-0.107-0.108-0.167-0.249-0.167-0.4s0.059-0.292 0.167-0.399l0.91-0.907 0.805 0.802-0.907 0.903zM7.101 27.319c-0.223 0.221-0.586 0.222-0.809 0.001-0.107-0.107-0.167-0.249-0.167-0.4s0.059-0.292 0.167-0.399l0.911-0.907 0.806 0.802-0.908 0.904zM10.395 24.037c-0.001 0-0.001 0-0.002 0.001l-1.669 1.665-0.806-0.802 1.668-1.66c0 0 0 0 0-0s0.001-0.001 0.002-0.001c0.038-0.038 0.062-0.083 0.085-0.128 0.007-0.013 0.019-0.024 0.025-0.038 0.016-0.039 0.018-0.081 0.024-0.122 0.003-0.023 0.013-0.045 0.013-0.069 0-0.034-0.012-0.067-0.019-0.1-0.006-0.030-0.006-0.061-0.018-0.090-0.019-0.047-0.052-0.089-0.086-0.13-0.010-0.011-0.013-0.025-0.024-0.036 0 0 0 0-0.001 0s-0.001-0.002-0.001-0.002l-1.52-1.514c-0.016-0.016-0.037-0.023-0.055-0.036-0.027-0.021-0.052-0.040-0.082-0.055-0.029-0.014-0.058-0.023-0.088-0.031-0.032-0.009-0.064-0.016-0.097-0.019-0.031-0.002-0.060 0.001-0.090 0.005-0.034 0.004-0.066 0.009-0.098 0.019-0.032 0.010-0.060 0.026-0.089 0.042-0.019 0.011-0.040 0.014-0.058 0.027l-1.677 1.252-0.852-0.849 2.269-2.257 4.125 4.057-0.877 0.869zM16.845 17.4c-0.015-0.002-0.028 0.004-0.043 0.003-0.037-0.002-0.072 0.001-0.109 0.007-0.029 0.005-0.056 0.011-0.083 0.020-0.032 0.011-0.062 0.026-0.091 0.044-0.028 0.017-0.054 0.035-0.079 0.058-0.012 0.011-0.027 0.016-0.038 0.028l-4.444 4.868-4.094-4.027 2.68-2.666c0.197-0.197 0.198-0.516 0.002-0.714-0.099-0.099-0.23-0.148-0.361-0.148v-0l-2.099 0.013 0.026-1.521 2.936 0.025c1.197 1.224 2.866 1.987 4.712 1.987 0.414 0 0.817-0.043 1.21-0.116 0.038 0.030 0.075 0.061 0.123 0.080l2.279 0.908 0.313 1.555-2.84-0.404zM20.668 17.568l-0.296-1.474 1.368-1.022 0.896 1.189-1.968 1.307zM24.219 14.89l-0.793 0.743-0.881-1.169 0.787-0.603c0.147-0.113 0.332-0.159 0.514-0.135 0.183 0.026 0.344 0.121 0.454 0.269 0.205 0.276 0.17 0.661-0.081 0.896z"></path>
<path fill="#212121" style="fill: var(--color1, #212121)" d="M14.597 17.542l-2.027-2.018c-0.196-0.196-0.515-0.196-0.712 0l-2.027 2.018c-0.095 0.095-0.148 0.223-0.148 0.358s0.053 0.263 0.148 0.358l2.027 2.018c0.098 0.098 0.228 0.147 0.356 0.147s0.258-0.049 0.356-0.147l2.027-2.018c0.095-0.095 0.149-0.223 0.149-0.358s-0.054-0.263-0.149-0.358zM12.214 19.206l-1.312-1.306 1.312-1.306 1.312 1.306-1.312 1.306z"></path>
<path fill="#212121" style="fill: var(--color1, #212121)" d="M17.966 4.797l-0.244 0.98c0.067 0.017 1.644 0.427 1.644 2.033h1.009c-0-1.908-1.576-2.805-2.409-3.012z"></path>
<path fill="#212121" style="fill: var(--color1, #212121)" d="M20.375 8.818h-1.009v1.009h1.009v-1.009z"></path>
</symbol>
<symbol id="icon-clock-1" viewBox="0 0 32 32">
<path fill="#212121" style="fill: var(--color1, #212121)" d="M31.297 15.301c-0.002-8.452-6.855-15.303-15.308-15.301s-15.303 6.855-15.301 15.308c0.001 6.658 4.307 12.551 10.649 14.576 0.061 0.019 0.124 0.029 0.187 0.029 0.121-0 0.239-0.032 0.342-0.094 0.135-0.080 0.236-0.207 0.283-0.356l3.865-12.25c1.057-0.005 1.909-0.866 1.903-1.923s-0.866-1.909-1.923-1.903c-0.284 0.001-0.565 0.067-0.82 0.191l-5.106-5.107c-0.253-0.245-0.657-0.238-0.902 0.016-0.239 0.247-0.239 0.639 0 0.886l5.103 5.109c-0.392 0.799-0.168 1.764 0.536 2.309l-3.683 11.673c-7.278-2.681-11.004-10.754-8.323-18.032s10.754-11.004 18.032-8.323 11.004 10.754 8.323 18.032c-1.31 3.556-4.001 6.431-7.462 7.973l-0.398-1.874c-0.073-0.344-0.411-0.565-0.756-0.492-0.109 0.023-0.209 0.074-0.292 0.148l-3.837 3.426c-0.263 0.234-0.287 0.637-0.052 0.9 0.076 0.085 0.174 0.149 0.283 0.184l4.899 1.563c0.335 0.108 0.694-0.077 0.802-0.412 0.034-0.106 0.040-0.219 0.017-0.328l-0.391-1.839c5.664-2.388 9.342-7.942 9.329-14.089v0zM15.992 14.664c0.352 0 0.638 0.286 0.638 0.638s-0.286 0.638-0.638 0.638c-0.352 0-0.638-0.285-0.638-0.638s0.285-0.638 0.638-0.638zM18.093 29.528l2.184-1.948 0.603 2.84-2.787-0.892z"></path>
<path fill="#2196f3" style="fill: var(--color2, #2196f3)" d="M15.354 3.185v1.275c0 0.352 0.285 0.638 0.638 0.638s0.638-0.285 0.638-0.638v-1.275c0-0.352-0.286-0.638-0.638-0.638s-0.638 0.286-0.638 0.638z"></path>
<path fill="#2196f3" style="fill: var(--color2, #2196f3)" d="M3.876 14.664c-0.352 0-0.638 0.286-0.638 0.638s0.285 0.638 0.638 0.638h1.275c0.352 0 0.638-0.285 0.638-0.638s-0.285-0.638-0.638-0.638h-1.275z"></path>
<path fill="#2196f3" style="fill: var(--color2, #2196f3)" d="M28.108 15.939c0.352 0 0.638-0.285 0.638-0.638s-0.285-0.638-0.638-0.638h-1.275c-0.352 0-0.638 0.286-0.638 0.638s0.286 0.638 0.638 0.638h1.275z"></path>
</symbol>
<symbol id="icon-diagram-1" viewBox="0 0 32 32">
<path fill="#2196f3" style="fill: var(--color2, #2196f3)" d="M14.926 14.965h1.066v4.798h-1.066v-4.797z"></path>
<path fill="#2196f3" style="fill: var(--color2, #2196f3)" d="M19.19 17.097h1.066v2.665h-1.066v-2.665z"></path>
<path fill="#2196f3" style="fill: var(--color2, #2196f3)" d="M10.661 18.696h1.066v1.066h-1.066v-1.066z"></path>
<path fill="#2196f3" style="fill: var(--color2, #2196f3)" d="M7.463 18.163h1.066v1.599h-1.066v-1.599z"></path>
<path fill="#212121" style="fill: var(--color1, #212121)" d="M1.599 28.291h25.587c0.883 0 1.599-0.716 1.599-1.599v-2.132c0-0.883-0.716-1.599-1.599-1.599h-0.533v-13.293l3.028-2.868c0.703 0.346 1.553 0.136 2.013-0.499s0.396-1.508-0.152-2.068-1.42-0.644-2.065-0.198c-0.644 0.446-0.873 1.292-0.542 2.002l-2.281 2.163v-1.23c0-0.883-0.716-1.599-1.599-1.599h-21.322c-0.883 0-1.599 0.716-1.599 1.599v15.992h-0.533c-0.883 0-1.599 0.716-1.599 1.599v2.132c0 0.883 0.716 1.599 1.599 1.599zM30.384 4.837c0.294 0 0.533 0.239 0.533 0.533s-0.239 0.533-0.533 0.533c-0.294 0-0.533-0.239-0.533-0.533s0.239-0.533 0.533-0.533zM3.198 6.969c0-0.294 0.239-0.533 0.533-0.533h21.322c0.294 0 0.533 0.239 0.533 0.533v2.239l-1.066 1.013v-2.186c0-0.294-0.239-0.533-0.533-0.533h-19.19c-0.294 0-0.533 0.239-0.533 0.533v13.326c0 0.294 0.239 0.533 0.533 0.533h19.19c0.294 0 0.533-0.239 0.533-0.533v-9.674l1.066-1.010v12.284h-22.388v-15.992zM7.996 13.899c-0.721-0.002-1.354 0.478-1.546 1.174s0.105 1.433 0.725 1.801c0.62 0.368 1.41 0.276 1.928-0.226l1.853 0.93c0.215 0.108 0.476 0.057 0.636-0.123l3.939-4.431 3.872 2.901c0.208 0.156 0.498 0.139 0.686-0.039l3.365-3.188v8.131h-18.124v-12.26h18.124v2.66l-3.771 3.572-3.904-2.927c-0.222-0.166-0.534-0.135-0.718 0.072l-3.993 4.493-1.493-0.746c0.011-0.064 0.018-0.129 0.020-0.193 0-0.883-0.716-1.599-1.599-1.599zM8.529 15.498c0 0.294-0.239 0.533-0.533 0.533s-0.533-0.239-0.533-0.533c0-0.294 0.239-0.533 0.533-0.533s0.533 0.239 0.533 0.533zM11.727 24.027h5.331v0.533c0 0.294-0.239 0.533-0.533 0.533h-4.264c-0.294 0-0.533-0.239-0.533-0.533v-0.533zM1.066 24.56c0-0.294 0.239-0.533 0.533-0.533h9.062v0.533c0 0.883 0.716 1.599 1.599 1.599h4.264c0.883 0 1.599-0.716 1.599-1.599v-0.533h9.062c0.294 0 0.533 0.239 0.533 0.533v2.132c0 0.294-0.239 0.533-0.533 0.533h-25.587c-0.294 0-0.533-0.239-0.533-0.533v-2.132z"></path>
</symbol>
</defs>
</svg>
